<svg xmlns="http://www.w3.org/2000/svg" xmlns:v="https://svgstorm.com"
viewBox = "0 0 500 400"
width="500"
height="400">
<g fill="None" fill-opacity="0.0" stroke="#000000" stroke-opacity="0.00" stroke-width="0.3"><path d="
M 0.00 400.00 
L 500.00 400.00
L 500.00 0.00
L 0.00 0.00
L 0.00 400.00
M 379.00 129.00 
C 381.35 129.72 380.00 132.81 379.00 130.00
C 378.31 130.92 377.60 131.86 377.00 133.00
C 376.85 133.72 378.95 132.13 377.73 134.75 C 376.52 137.38 375.44 135.39 376.00 135.00
C 368.71 145.92 357.93 151.28 347.00 157.00
C 348.00 157.03 349.73 156.58 350.00 158.00
C 348.28 157.43 344.04 160.51 346.00 157.00
C 342.44 157.66 327.38 163.27 325.00 159.00
C 321.28 160.98 324.67 156.96 326.00 156.00
C 327.52 153.17 329.38 155.91 329.00 156.00
C 330.87 154.71 332.39 153.32 334.00 152.00
C 333.36 152.96 335.70 148.96 338.00 147.00
C 343.42 142.37 349.83 135.05 354.00 132.00
C 354.87 130.84 355.27 130.26 356.00 129.00
C 355.94 129.18 356.44 123.71 357.00 128.00
C 362.02 122.78 369.39 110.53 369.00 103.00
C 368.86 103.22 368.00 103.00 368.00 103.00
C 364.95 113.59 360.85 118.07 353.00 126.00
C 351.37 127.65 349.66 129.45 348.00 131.00
C 343.85 135.53 330.30 144.47 326.70 136.30 C 323.10 128.14 330.07 117.66 335.00 112.00
C 335.57 110.94 335.92 110.82 337.25 108.25 C 338.58 105.68 341.79 106.70 341.00 107.00
C 349.37 100.39 364.97 96.16 369.00 85.00
C 366.65 84.28 368.00 81.20 369.00 84.00
C 371.12 81.53 370.97 79.01 372.00 76.00
C 372.05 74.38 369.96 72.00 371.00 70.00
C 372.98 70.47 370.89 73.60 373.00 74.00
C 373.13 72.34 372.90 70.66 373.00 69.00
C 379.91 75.64 380.83 86.94 382.99 97.01 C 385.16 107.08 383.06 119.59 379.00 129.00
M 371.00 76.00 
C 372.79 77.79 370.23 75.23 371.00 76.00
M 382.00 82.00 
C 383.79 83.79 381.23 81.23 382.00 82.00
M 300.00 89.00 
C 294.95 91.87 292.74 87.83 300.00 89.00
M 384.00 89.00 
C 385.13 94.21 381.19 91.83 384.00 89.00
M 304.00 92.00 
C 299.98 88.93 305.93 90.92 308.00 91.00
C 307.74 92.39 305.95 91.78 305.00 92.00
C 307.80 93.47 311.23 94.94 314.00 97.00
C 314.65 97.22 319.60 97.95 320.00 102.00
C 320.15 103.57 320.46 102.95 321.00 104.00
C 321.59 104.00 322.75 102.75 324.00 107.00
C 326.07 114.05 323.57 124.12 321.00 131.00
C 318.17 122.79 316.02 112.91 310.00 106.00
C 309.75 106.25 309.00 106.00 309.00 106.00
C 314.04 113.40 316.06 134.14 304.00 121.00
C 304.83 122.28 306.18 123.32 306.00 125.00
C 304.32 123.62 298.47 118.41 302.00 118.00
C 296.82 109.39 300.82 95.26 289.00 91.00
C 293.02 89.74 299.24 91.50 304.00 92.00
M 385.00 95.00 
C 386.26 102.32 382.06 99.99 385.00 95.00
M 252.00 102.00 
C 252.58 103.13 253.07 103.33 254.00 104.00
C 254.70 104.15 255.58 102.53 258.00 106.00
C 258.50 106.05 259.00 106.00 259.00 106.00
C 260.78 106.87 261.94 108.49 263.00 110.00
C 263.48 110.10 264.00 110.00 264.00 110.00
C 265.78 110.87 266.94 112.49 268.00 114.00
C 268.48 114.10 269.00 114.00 269.00 114.00
C 270.88 114.92 271.60 116.85 273.00 118.00
C 286.79 125.28 300.78 139.03 310.00 150.00
C 288.47 147.33 265.49 149.98 246.00 157.00
C 247.00 157.03 248.73 156.58 249.00 158.00
C 247.28 157.43 243.04 160.51 245.00 157.00
C 243.10 157.26 241.39 158.00 240.00 159.00
C 241.00 159.03 242.73 158.58 243.00 160.00
C 241.29 159.21 238.68 162.29 239.00 159.00
C 237.48 159.47 236.15 160.30 235.00 161.00
C 238.60 161.73 232.10 165.12 232.00 162.00
C 222.20 168.17 211.94 172.33 203.00 180.00
C 203.30 179.55 199.36 185.67 196.25 188.25 C 193.14 190.82 189.28 194.83 187.00 196.00
C 186.23 196.76 185.65 197.12 185.00 198.00
C 185.35 195.78 186.38 202.50 183.00 204.00
C 181.14 203.54 182.84 201.96 183.00 201.00
C 180.92 203.54 178.81 206.09 177.00 209.00
C 179.72 207.73 178.86 210.57 177.00 210.00
C 170.82 213.86 170.35 223.34 166.23 229.23 C 162.10 235.12 161.59 245.39 159.00 252.00
C 158.94 253.09 160.89 254.59 160.00 256.00
C 158.74 255.92 159.44 253.94 158.00 254.00
C 156.71 259.60 157.26 268.91 155.00 274.00
C 154.04 277.92 153.08 274.57 153.00 274.00
C 149.78 266.76 154.68 255.92 153.00 248.00 C 151.32 240.08 154.26 230.11 153.00 222.00
C 134.83 221.33 115.34 223.33 98.00 221.00
C 99.90 219.13 102.70 218.27 104.00 216.00
C 103.79 216.32 108.70 208.36 113.00 207.00
C 113.53 208.28 112.03 208.86 112.00 210.00
C 113.07 209.12 114.07 207.80 115.00 207.00
C 115.02 206.97 115.65 202.83 118.00 203.00
C 118.53 204.28 117.03 204.86 117.00 206.00
C 118.37 205.17 118.95 203.90 120.00 203.00
C 120.02 202.97 120.65 198.83 123.00 199.00
C 123.53 200.28 122.03 200.86 122.00 202.00
C 128.52 198.03 134.31 191.68 140.00 187.00
C 140.25 186.66 139.79 186.82 140.76 184.75 C 141.73 182.69 143.88 184.61 143.00 185.00
C 147.13 181.88 150.98 177.80 155.00 175.00
C 162.79 164.61 155.37 143.61 158.00 130.00
C 159.67 143.34 159.65 159.35 158.00 173.00
C 162.72 168.18 159.05 158.83 160.00 152.00 C 160.95 145.17 159.29 136.04 160.00 129.00
C 168.33 129.00 176.67 129.00 185.00 129.00
C 185.00 136.33 185.00 143.67 185.00 151.00
C 186.55 149.45 189.17 149.17 190.00 147.00
C 188.88 148.69 190.83 141.96 194.00 142.00
C 194.53 143.28 193.03 143.86 193.00 145.00
C 194.16 144.12 195.02 142.84 196.00 142.00
C 196.02 141.97 196.65 137.83 199.00 138.00
C 199.53 139.28 198.03 139.86 198.00 141.00
C 199.37 140.17 199.95 138.90 201.00 138.00
C 201.02 137.97 201.65 133.83 204.00 134.00
C 204.53 135.28 203.03 135.86 203.00 137.00
C 204.37 136.17 204.95 134.90 206.00 134.00
C 206.02 133.97 206.65 129.83 209.00 130.00
C 209.53 131.28 208.03 131.86 208.00 133.00
C 209.37 132.17 209.95 130.90 211.00 130.00
C 211.02 129.97 211.65 125.83 214.00 126.00
C 214.53 127.28 213.03 127.86 213.00 129.00
C 214.37 128.17 214.95 126.90 216.00 126.00
C 216.02 125.97 216.65 121.83 219.00 122.00
C 219.53 123.28 218.03 123.86 218.00 125.00
C 219.37 124.17 219.95 122.90 221.00 122.00
C 221.02 121.97 221.65 117.83 224.00 118.00
C 224.53 119.28 223.03 119.86 223.00 121.00
C 224.37 120.17 224.95 118.90 226.00 118.00
C 226.02 117.97 226.65 113.83 229.00 114.00
C 229.53 115.28 228.03 115.86 228.00 117.00
C 229.39 116.15 229.95 114.98 231.00 114.00
C 231.47 113.25 230.43 114.10 231.76 111.75 C 233.09 109.40 234.28 111.94 234.00 112.00
C 234.88 111.34 235.30 110.68 236.00 110.00
C 236.50 109.04 235.41 110.17 236.76 107.75 C 238.11 105.33 239.26 107.94 239.00 108.00
C 239.88 107.34 240.30 106.68 241.00 106.00
C 241.50 105.04 240.41 106.17 241.76 103.75 C 243.11 101.33 244.26 103.94 244.00 104.00
C 244.98 103.27 245.44 103.12 246.00 102.00
C 246.67 100.68 247.78 99.40 249.00 98.00
C 250.04 98.82 253.81 100.91 252.00 102.00
M 298.00 104.00 
C 299.26 111.32 295.06 108.99 298.00 104.00
M 326.00 112.00 
C 323.92 118.28 329.54 121.48 326.00 125.00
C 325.01 121.16 323.89 115.38 326.00 112.00
M 385.00 112.00 
C 386.21 118.27 382.10 115.91 385.00 112.00
M 316.00 118.00 
C 318.57 124.21 312.86 122.75 316.00 118.00
M 325.00 124.00 
C 327.79 128.83 322.21 127.36 325.00 124.00
M 355.00 126.00 
C 355.74 126.74 354.18 125.18 355.00 126.00
M 184.00 127.00 
C 177.58 129.29 169.18 127.36 162.00 128.00
C 168.42 125.71 176.82 127.64 184.00 127.00
M 324.00 128.00 
C 325.23 130.13 325.88 134.30 324.00 136.00
C 325.09 133.25 322.22 129.77 324.00 128.00
M 354.00 128.00 
C 352.81 129.71 351.35 132.12 349.00 132.00
C 350.19 130.29 351.65 127.88 354.00 128.00
M 187.00 130.00 
C 186.66 136.29 187.49 143.39 187.00 149.00
C 185.37 143.74 185.31 135.19 187.00 130.00
M 306.00 150.00 
C 299.58 152.29 291.18 150.36 284.00 151.00
C 290.42 148.71 298.82 150.64 306.00 150.00
M 280.00 151.00 
C 274.95 153.87 272.74 149.83 280.00 151.00
M 272.00 152.00 
C 269.06 154.68 266.90 151.01 272.00 152.00
M 266.00 153.00 
C 263.06 155.68 260.90 152.01 266.00 153.00
M 256.00 155.00 
C 256.61 155.61 254.34 153.34 256.00 155.00
M 354.00 155.00 
C 354.74 155.74 353.18 154.18 354.00 155.00
M 352.00 156.00 
C 352.74 156.74 351.18 155.18 352.00 156.00
M 335.00 169.00 
C 334.41 168.07 333.86 167.17 334.00 166.00
C 336.30 168.81 345.92 173.48 343.00 175.00
C 348.66 179.38 354.16 184.59 360.00 189.00
C 359.31 188.69 360.39 187.09 361.75 188.27 C 363.12 189.45 363.02 191.03 363.00 191.00
C 365.24 192.84 367.51 195.23 370.00 197.00
C 369.03 196.57 370.90 194.77 371.75 196.27 C 372.61 197.77 372.98 198.17 374.00 199.00
C 383.69 203.89 395.08 214.18 400.00 222.00
C 381.67 222.00 363.33 222.00 345.00 222.00
C 345.00 258.33 345.00 294.67 345.00 331.00
C 285.09 331.67 224.47 329.67 165.00 332.00
C 164.47 330.72 165.97 330.14 166.00 329.00
C 165.61 327.46 164.06 329.12 166.00 326.00
C 166.62 325.01 167.33 323.89 168.00 323.00
C 169.92 320.45 173.96 318.33 173.00 319.00
C 181.77 307.42 194.56 303.37 205.00 295.00
C 200.84 294.15 208.28 291.59 206.00 295.00
C 208.53 294.41 210.89 292.94 213.00 292.00
C 211.56 293.25 217.81 286.28 222.00 288.00
C 221.92 289.26 219.94 288.56 220.00 290.00
C 222.66 289.36 225.31 288.68 228.00 288.00
C 227.61 287.90 226.17 286.57 226.00 286.00
C 227.56 285.59 228.69 286.46 230.00 287.00
C 235.71 284.76 242.72 284.89 248.00 282.00
C 247.00 281.97 245.27 282.42 245.00 281.00
C 247.16 281.01 252.83 278.75 249.00 282.00
C 254.46 280.98 262.26 278.72 267.07 276.07 C 271.88 273.43 280.09 271.66 283.00 267.00
C 280.24 264.35 293.92 260.14 292.00 261.00
C 293.82 259.45 295.38 257.59 297.00 256.00
C 297.29 255.56 297.21 255.25 298.25 253.25 C 299.29 251.24 300.71 252.63 300.00 253.00
C 301.04 251.96 302.08 251.14 303.00 250.00
C 302.10 250.63 301.15 251.10 300.00 251.00
C 301.46 249.39 304.24 244.68 306.00 246.00
C 307.61 243.64 307.99 242.11 309.00 239.00
C 310.88 242.84 313.66 236.04 315.00 234.00
C 311.95 235.62 314.83 231.38 315.00 231.00
C 316.26 228.26 319.12 226.91 318.00 228.00
C 318.70 226.58 319.87 225.97 320.00 224.00
C 316.65 226.24 319.50 221.60 319.00 220.00
C 320.39 220.26 319.78 222.05 320.00 223.00
C 332.71 199.78 291.71 197.50 280.00 207.00
C 281.00 207.03 282.73 206.58 283.00 208.00
C 281.28 207.43 277.04 210.51 279.00 207.00
C 263.76 210.57 248.47 222.00 235.77 230.77 C 223.07 239.54 211.18 251.09 201.00 263.00
C 201.93 262.41 202.83 261.86 204.00 262.00
C 202.22 263.93 199.09 269.02 197.00 268.00
C 195.34 269.87 190.18 278.40 188.00 279.00
C 191.70 280.30 186.75 281.70 185.00 282.00
C 185.79 280.28 182.71 277.68 186.00 278.00
C 187.22 275.26 188.91 272.79 190.00 270.00
C 187.28 271.27 188.14 268.43 190.00 269.00
C 191.64 266.96 192.75 264.45 194.00 262.00
C 189.22 263.91 196.58 258.40 195.00 260.00
C 196.26 258.15 197.73 256.03 199.00 254.00
C 196.94 255.01 198.10 254.08 198.27 252.25 C 198.43 250.41 201.37 251.05 200.00 252.00
C 203.23 247.16 207.56 243.68 208.00 238.00
C 208.82 239.43 210.32 240.42 211.00 238.00
C 211.22 237.66 213.75 231.51 217.25 228.25 C 220.74 224.99 224.74 221.50 228.00 220.00
C 228.86 219.19 230.03 218.76 231.00 218.00
C 233.80 214.72 236.91 211.71 240.00 209.00
C 240.33 208.53 239.69 208.91 240.76 206.75 C 241.83 204.59 243.73 206.72 243.00 207.00
C 245.17 205.40 247.09 203.57 249.00 202.00
C 248.81 202.29 247.33 202.49 249.24 200.23 C 251.14 197.97 252.25 199.91 252.00 200.00
C 254.73 198.11 257.42 195.72 260.00 194.00
C 255.03 194.75 263.89 189.13 262.00 193.00
C 264.26 191.84 266.13 190.40 268.00 189.00
C 266.75 190.33 271.87 183.33 270.00 188.00
C 275.91 184.32 282.74 181.22 288.00 177.00
C 284.76 176.63 287.66 175.85 289.00 175.00
C 291.25 173.57 300.90 167.98 301.00 171.00
C 304.49 169.63 307.93 167.57 311.00 166.00
C 307.69 166.12 310.71 164.01 312.00 164.00
C 313.20 162.47 315.44 162.90 314.00 165.00
C 324.88 162.44 325.74 161.08 335.00 169.00
M 333.00 162.00 
C 326.12 164.59 327.34 158.59 333.00 162.00
M 308.00 166.00 
C 308.74 166.74 307.18 165.18 308.00 166.00
M 305.00 167.00 
C 305.74 167.74 304.18 166.18 305.00 167.00
M 309.00 203.00 
C 306.24 205.16 301.51 203.45 298.00 204.00
C 300.76 201.84 305.49 203.55 309.00 203.00
M 313.00 204.00 
C 313.61 204.61 311.34 202.34 313.00 204.00
M 315.00 205.00 
C 315.74 205.74 314.18 204.18 315.00 205.00
M 275.00 210.00 
C 275.61 210.61 273.34 208.34 275.00 210.00
M 272.00 211.00 
C 272.74 211.74 271.18 210.18 272.00 211.00
M 321.00 213.00 
C 322.21 219.27 318.11 216.91 321.00 213.00
M 231.00 215.00 
C 230.63 219.74 226.21 216.78 231.00 215.00
M 152.00 223.00 
C 152.00 239.67 152.00 256.33 152.00 273.00
C 149.67 257.57 151.66 240.18 151.00 224.00
C 133.67 224.00 116.33 224.00 99.00 224.00
C 115.76 221.67 134.49 223.66 152.00 223.00
M 347.00 224.00 
C 350.22 259.37 344.59 295.55 347.00 331.00
C 344.67 296.24 346.67 259.52 346.00 224.00
C 350.84 218.96 364.85 224.87 372.00 223.00 C 379.15 221.13 391.39 224.40 399.00 223.00
C 382.57 225.33 364.18 223.34 347.00 224.00
M 161.00 250.00 
C 162.79 251.79 160.23 249.23 161.00 250.00
M 158.00 262.00 
C 159.13 267.21 155.19 264.83 158.00 262.00
M 157.00 267.00 
C 158.21 273.27 154.10 270.91 157.00 267.00
M 188.00 271.00 
C 188.74 271.74 187.18 270.18 188.00 271.00
M 269.00 273.00 
C 269.74 273.74 268.18 272.18 269.00 273.00
M 243.00 282.00 
C 243.61 282.61 241.34 280.34 243.00 282.00 Z"/>
</g>
<g fill="None" fill-opacity="0.0" stroke="#2A993F" stroke-opacity="0.92" stroke-width="0.3"><path d="
M 373.00 74.00 
C 372.89 75.42 372.30 75.11 372.00 76.00
C 370.97 79.01 371.12 81.53 369.00 84.00
C 368.75 84.29 369.00 85.00 369.00 85.00
C 364.97 96.16 349.37 100.39 341.00 107.00
C 339.13 108.47 336.50 110.28 335.00 112.00
C 330.07 117.66 323.10 128.14 326.70 136.30 C 330.30 144.47 343.85 135.53 348.00 131.00
C 349.64 129.21 351.20 127.55 353.00 126.00
C 360.85 118.07 364.95 113.59 368.00 103.00
C 368.27 101.98 369.40 101.25 369.00 100.00
C 370.28 100.22 370.42 102.81 369.00 103.00
C 369.39 110.53 362.02 122.78 357.00 128.00
C 356.75 128.26 356.16 128.73 356.00 129.00
C 355.27 130.26 354.87 130.84 354.00 132.00
C 349.22 138.35 343.48 145.10 337.00 150.00
C 336.08 150.70 334.85 151.30 334.00 152.00
C 332.39 153.32 330.87 154.71 329.00 156.00
C 328.01 156.69 326.97 157.36 326.00 158.00
C 325.69 158.21 324.90 158.81 325.00 159.00
C 327.38 163.27 342.44 157.66 346.00 157.00
C 346.48 156.91 347.00 157.00 347.00 157.00
C 357.93 151.28 368.71 145.92 376.00 135.00
C 376.44 134.35 376.65 133.67 377.00 133.00
C 377.60 131.86 378.31 130.92 379.00 130.00
C 379.24 129.68 379.00 129.00 379.00 129.00
C 383.06 119.59 385.16 107.08 382.99 97.01 C 380.83 86.94 379.91 75.64 373.00 69.00
C 372.90 70.66 373.13 72.34 373.00 74.00 Z"/>
</g>
<g fill="None" fill-opacity="0.0" stroke="#15A03F" stroke-opacity="0.01" stroke-width="0.3"><path d="
M 372.00 76.00 
C 372.30 75.11 372.89 75.42 373.00 74.00
C 370.89 73.60 372.98 70.47 371.00 70.00
C 369.96 72.00 372.05 74.38 372.00 76.00 Z"/>
</g>
<g fill="None" fill-opacity="0.0" stroke="#00D343" stroke-opacity="0.01" stroke-width="0.3"><path d="
M 371.00 76.00 
C 370.23 75.23 372.79 77.79 371.00 76.00 Z"/>
</g>
<g fill="None" fill-opacity="0.0" stroke="#249923" stroke-opacity="0.00" stroke-width="0.3"><path d="
M 369.00 85.00 
C 369.00 85.00 368.75 84.29 369.00 84.00
C 368.00 81.20 366.65 84.28 369.00 85.00 Z"/>
</g>
<g fill="None" fill-opacity="0.0" stroke="#3ABD38" stroke-opacity="0.01" stroke-width="0.3"><path d="
M 382.00 82.00 
C 381.23 81.23 383.79 83.79 382.00 82.00 Z"/>
</g>
<g fill="None" fill-opacity="0.0" stroke="#2EB754" stroke-opacity="0.01" stroke-width="0.3"><path d="
M 300.00 89.00 
C 292.74 87.83 294.95 91.87 300.00 89.00 Z"/>
</g>
<g fill="None" fill-opacity="0.0" stroke="#37A936" stroke-opacity="0.01" stroke-width="0.3"><path d="
M 384.00 89.00 
C 381.19 91.83 385.13 94.21 384.00 89.00 Z"/>
</g>
<g fill="None" fill-opacity="0.0" stroke="#29983E" stroke-opacity="0.84" stroke-width="0.3"><path d="
M 302.00 118.00 
C 302.55 118.92 303.32 120.26 304.00 121.00
C 316.06 134.14 314.04 113.40 309.00 106.00
C 308.12 105.25 306.84 103.89 306.00 103.00
C 305.09 102.05 303.19 101.58 303.00 100.00
C 306.19 99.46 308.43 102.79 310.00 105.00
C 310.20 105.40 310.00 106.00 310.00 106.00
C 316.02 112.91 318.17 122.79 321.00 131.00
C 323.57 124.12 326.07 114.05 324.00 107.00
C 323.28 105.96 321.90 105.75 321.00 104.00
C 320.46 102.95 320.15 103.57 320.00 102.00
C 318.76 100.26 315.69 98.26 314.00 97.00
C 311.23 94.94 307.80 93.47 305.00 92.00
C 304.61 91.79 304.00 92.00 304.00 92.00
C 299.24 91.50 293.02 89.74 289.00 91.00
C 300.82 95.26 296.82 109.39 302.00 118.00 Z"/>
</g>
<g fill="None" fill-opacity="0.0" stroke="#2BAC35" stroke-opacity="0.01" stroke-width="0.3"><path d="
M 304.00 92.00 
C 304.00 92.00 304.61 91.79 305.00 92.00
C 305.95 91.78 307.74 92.39 308.00 91.00
C 305.93 90.92 299.98 88.93 304.00 92.00 Z"/>
</g>
<g fill="None" fill-opacity="0.0" stroke="#0B3813" stroke-opacity="0.01" stroke-width="0.3"><path d="
M 314.00 97.00 
C 315.69 98.26 318.76 100.26 320.00 102.00
C 319.60 97.95 314.65 97.22 314.00 97.00 Z"/>
</g>
<g fill="None" fill-opacity="0.0" stroke="#2FB73A" stroke-opacity="0.01" stroke-width="0.3"><path d="
M 385.00 95.00 
C 382.06 99.99 386.26 102.32 385.00 95.00 Z"/>
</g>
<g fill="None" fill-opacity="0.0" stroke="#175C20" stroke-opacity="0.03" stroke-width="0.3"><path d="
M 246.00 102.00 
C 247.42 101.06 250.53 101.02 252.00 102.00
C 253.81 100.91 250.04 98.82 249.00 98.00
C 247.78 99.40 246.67 100.68 246.00 102.00 Z"/>
</g>
<g fill="None" fill-opacity="0.0" stroke="#2A9740" stroke-opacity="0.58" stroke-width="0.3"><path d="
M 306.00 103.00 
C 305.91 102.93 309.05 104.00 310.00 105.00
C 308.43 102.79 306.19 99.46 303.00 100.00
C 303.19 101.58 305.09 102.05 306.00 103.00 Z"/>
</g>
<g fill="None" fill-opacity="0.0" stroke="#299A3F" stroke-opacity="0.36" stroke-width="0.3"><path d="
M 368.00 103.00 
C 368.00 103.00 368.86 103.22 369.00 103.00
C 370.42 102.81 370.28 100.22 369.00 100.00
C 369.40 101.25 368.27 101.98 368.00 103.00 Z"/>
</g>
<g fill="None" fill-opacity="0.0" stroke="#2A993F" stroke-opacity="0.95" stroke-width="0.3"><path d="
M 246.00 102.00 
C 245.44 103.12 244.98 103.27 244.00 104.00
C 243.13 104.65 241.73 105.29 241.00 106.00
C 240.30 106.68 239.88 107.34 239.00 108.00
C 238.13 108.65 236.73 109.29 236.00 110.00
C 235.30 110.68 234.88 111.34 234.00 112.00
C 233.11 112.66 231.76 113.29 231.00 114.00
C 229.95 114.98 229.39 116.15 228.00 117.00
C 227.49 117.31 226.40 117.65 226.00 118.00
C 224.95 118.90 224.37 120.17 223.00 121.00
C 222.49 121.31 221.40 121.65 221.00 122.00
C 219.95 122.90 219.37 124.17 218.00 125.00
C 217.49 125.31 216.40 125.65 216.00 126.00
C 214.95 126.90 214.37 128.17 213.00 129.00
C 212.49 129.31 211.40 129.65 211.00 130.00
C 209.95 130.90 209.37 132.17 208.00 133.00
C 207.49 133.31 206.40 133.65 206.00 134.00
C 204.95 134.90 204.37 136.17 203.00 137.00
C 202.49 137.31 201.40 137.65 201.00 138.00
C 199.95 138.90 199.37 140.17 198.00 141.00
C 197.49 141.31 196.40 141.65 196.00 142.00
C 195.02 142.84 194.16 144.12 193.00 145.00
C 192.08 145.70 190.85 146.30 190.00 147.00
C 189.17 149.17 186.55 149.45 185.00 151.00
C 185.00 143.67 185.00 136.33 185.00 129.00
C 176.67 129.00 168.33 129.00 160.00 129.00
C 159.29 136.04 160.95 145.17 160.00 152.00 C 159.05 158.83 162.72 168.18 158.00 173.00
C 157.14 173.88 156.06 174.26 155.00 175.00
C 150.98 177.80 147.13 181.88 143.00 185.00
C 142.08 185.70 140.85 186.30 140.00 187.00
C 134.31 191.68 128.52 198.03 122.00 202.00
C 121.49 202.31 120.40 202.65 120.00 203.00
C 118.95 203.90 118.37 205.17 117.00 206.00
C 116.49 206.31 115.40 206.65 115.00 207.00
C 114.07 207.80 113.07 209.12 112.00 210.00
C 109.37 212.19 106.62 213.97 104.00 216.00
C 102.70 218.27 99.90 219.13 98.00 221.00
C 115.34 223.33 134.83 221.33 153.00 222.00
C 154.26 230.11 151.32 240.08 153.00 248.00 C 154.68 255.92 149.78 266.76 153.00 274.00
C 153.08 274.19 154.92 274.19 155.00 274.00
C 157.26 268.91 156.71 259.60 158.00 254.00
C 158.26 252.86 158.70 252.77 159.00 252.00
C 161.59 245.39 162.10 235.12 166.23 229.23 C 170.35 223.34 170.82 213.86 177.00 210.00
C 177.22 209.86 177.00 209.00 177.00 209.00
C 178.81 206.09 180.92 203.54 183.00 201.00
C 183.75 200.09 184.33 198.90 185.00 198.00
C 185.65 197.12 186.23 196.76 187.00 196.00
C 188.77 194.25 190.42 191.85 192.00 190.00
C 194.19 187.44 196.44 185.10 199.00 183.00
C 200.25 181.98 201.82 181.01 203.00 180.00
C 211.94 172.33 222.20 168.17 232.00 162.00
C 232.36 161.77 233.00 162.00 233.00 162.00
C 233.26 161.88 233.65 161.03 234.00 161.00
C 234.50 160.95 235.00 161.00 235.00 161.00
C 236.15 160.30 237.48 159.47 239.00 159.00
C 239.46 158.86 240.00 159.00 240.00 159.00
C 241.39 158.00 243.10 157.26 245.00 157.00
C 245.49 156.93 246.00 157.00 246.00 157.00
C 265.49 149.98 288.47 147.33 310.00 150.00
C 300.78 139.03 286.79 125.28 273.00 118.00
C 270.96 116.92 267.69 116.79 269.00 114.00
C 269.00 114.00 268.48 114.10 268.00 114.00
C 265.70 113.50 262.89 112.39 264.00 110.00
C 264.00 110.00 263.48 110.10 263.00 110.00
C 260.70 109.50 257.89 108.39 259.00 106.00
C 259.00 106.00 258.50 106.05 258.00 106.00
C 256.41 105.85 255.26 104.91 254.00 104.00
C 253.07 103.33 252.58 103.13 252.00 102.00
C 250.53 101.02 247.42 101.06 246.00 102.00 Z"/>
</g>
<g fill="None" fill-opacity="0.0" stroke="#134C1A" stroke-opacity="0.01" stroke-width="0.3"><path d="
M 241.00 106.00 
C 241.73 105.29 243.13 104.65 244.00 104.00
C 244.26 103.94 243.11 101.33 241.76 103.75 C 240.41 106.17 241.50 105.04 241.00 106.00 Z"/>
</g>
<g fill="None" fill-opacity="0.0" stroke="#163D16" stroke-opacity="0.01" stroke-width="0.3"><path d="
M 254.00 104.00 
C 255.26 104.91 256.41 105.85 258.00 106.00
C 255.58 102.53 254.70 104.15 254.00 104.00 Z"/>
</g>
<g fill="None" fill-opacity="0.0" stroke="#051F04" stroke-opacity="0.00" stroke-width="0.3"><path d="
M 306.00 103.00 
C 306.84 103.89 308.12 105.25 309.00 106.00
C 309.00 106.00 309.75 106.25 310.00 106.00
C 310.00 106.00 310.20 105.40 310.00 105.00
C 309.05 104.00 305.91 102.93 306.00 103.00 Z"/>
</g>
<g fill="None" fill-opacity="0.0" stroke="#0E600D" stroke-opacity="0.00" stroke-width="0.3"><path d="
M 321.00 104.00 
C 321.90 105.75 323.28 105.96 324.00 107.00
C 322.75 102.75 321.59 104.00 321.00 104.00 Z"/>
</g>
<g fill="None" fill-opacity="0.0" stroke="#249440" stroke-opacity="0.01" stroke-width="0.3"><path d="
M 298.00 104.00 
C 295.06 108.99 299.26 111.32 298.00 104.00 Z"/>
</g>
<g fill="None" fill-opacity="0.0" stroke="#0D3B21" stroke-opacity="0.00" stroke-width="0.3"><path d="
M 335.00 112.00 
C 336.50 110.28 339.13 108.47 341.00 107.00
C 341.79 106.70 338.58 105.68 337.25 108.25 C 335.92 110.82 335.57 110.94 335.00 112.00 Z"/>
</g>
<g fill="None" fill-opacity="0.0" stroke="#134C1A" stroke-opacity="0.01" stroke-width="0.3"><path d="
M 236.00 110.00 
C 236.73 109.29 238.13 108.65 239.00 108.00
C 239.26 107.94 238.11 105.33 236.76 107.75 C 235.41 110.17 236.50 109.04 236.00 110.00 Z"/>
</g>
<g fill="None" fill-opacity="0.0" stroke="#0D3612" stroke-opacity="0.01" stroke-width="0.3"><path d="
M 263.00 110.00 
C 261.94 108.49 260.78 106.87 259.00 106.00
C 257.89 108.39 260.70 109.50 263.00 110.00 Z"/>
</g>
<g fill="None" fill-opacity="0.0" stroke="#134C1A" stroke-opacity="0.01" stroke-width="0.3"><path d="
M 231.00 114.00 
C 231.76 113.29 233.11 112.66 234.00 112.00
C 234.28 111.94 233.09 109.40 231.76 111.75 C 230.43 114.10 231.47 113.25 231.00 114.00 Z"/>
</g>
<g fill="None" fill-opacity="0.0" stroke="#0D3612" stroke-opacity="0.01" stroke-width="0.3"><path d="
M 268.00 114.00 
C 266.94 112.49 265.78 110.87 264.00 110.00
C 262.89 112.39 265.70 113.50 268.00 114.00 Z"/>
</g>
<g fill="None" fill-opacity="0.0" stroke="#29953E" stroke-opacity="0.01" stroke-width="0.3"><path d="
M 326.00 112.00 
C 323.89 115.38 325.01 121.16 326.00 125.00
C 329.54 121.48 323.92 118.28 326.00 112.00 Z"/>
</g>
<g fill="None" fill-opacity="0.0" stroke="#31A93D" stroke-opacity="0.01" stroke-width="0.3"><path d="
M 385.00 112.00 
C 382.10 115.91 386.21 118.27 385.00 112.00 Z"/>
</g>
<g fill="None" fill-opacity="0.0" stroke="#134C1A" stroke-opacity="0.01" stroke-width="0.3"><path d="
M 226.00 118.00 
C 226.40 117.65 227.49 117.31 228.00 117.00
C 228.03 115.86 229.53 115.28 229.00 114.00
C 226.65 113.83 226.02 117.97 226.00 118.00 Z"/>
</g>
<g fill="None" fill-opacity="0.0" stroke="#0B3210" stroke-opacity="0.01" stroke-width="0.3"><path d="
M 273.00 118.00 
C 271.60 116.85 270.88 114.92 269.00 114.00
C 267.69 116.79 270.96 116.92 273.00 118.00 Z"/>
</g>
<g fill="None" fill-opacity="0.0" stroke="#134C1A" stroke-opacity="0.01" stroke-width="0.3"><path d="
M 221.00 122.00 
C 221.40 121.65 222.49 121.31 223.00 121.00
C 223.03 119.86 224.53 119.28 224.00 118.00
C 221.65 117.83 221.02 121.97 221.00 122.00 Z"/>
</g>
<g fill="None" fill-opacity="0.0" stroke="#006E14" stroke-opacity="0.00" stroke-width="0.3"><path d="
M 304.00 121.00 
C 303.32 120.26 302.55 118.92 302.00 118.00
C 298.47 118.41 304.32 123.62 306.00 125.00
C 306.18 123.32 304.83 122.28 304.00 121.00 Z"/>
</g>
<g fill="None" fill-opacity="0.0" stroke="#2AA743" stroke-opacity="0.02" stroke-width="0.3"><path d="
M 316.00 118.00 
C 312.86 122.75 318.57 124.21 316.00 118.00 Z"/>
</g>
<g fill="None" fill-opacity="0.0" stroke="#124711" stroke-opacity="0.01" stroke-width="0.3"><path d="
M 216.00 126.00 
C 216.40 125.65 217.49 125.31 218.00 125.00
C 218.03 123.86 219.53 123.28 219.00 122.00
C 216.65 121.83 216.02 125.97 216.00 126.00 Z"/>
</g>
<g fill="None" fill-opacity="0.0" stroke="#1DA959" stroke-opacity="0.01" stroke-width="0.3"><path d="
M 325.00 124.00 
C 322.21 127.36 327.79 128.83 325.00 124.00 Z"/>
</g>
<g fill="None" fill-opacity="0.0" stroke="#124711" stroke-opacity="0.01" stroke-width="0.3"><path d="
M 211.00 130.00 
C 211.40 129.65 212.49 129.31 213.00 129.00
C 213.03 127.86 214.53 127.28 214.00 126.00
C 211.65 125.83 211.02 129.97 211.00 130.00 Z"/>
</g>
<g fill="None" fill-opacity="0.0" stroke="#2A993E" stroke-opacity="0.55" stroke-width="0.3"><path d="
M 348.00 131.00 
C 349.66 129.45 351.37 127.65 353.00 126.00
C 351.20 127.55 349.64 129.21 348.00 131.00 Z"/>
</g>
<g fill="None" fill-opacity="0.0" stroke="#00FF00" stroke-opacity="0.00" stroke-width="0.3"><path d="
M 355.00 126.00 
C 354.18 125.18 355.74 126.74 355.00 126.00 Z"/>
</g>
<g fill="None" fill-opacity="0.0" stroke="#308530" stroke-opacity="0.01" stroke-width="0.3"><path d="
M 356.00 129.00 
C 356.16 128.73 356.75 128.26 357.00 128.00
C 356.44 123.71 355.94 129.18 356.00 129.00 Z"/>
</g>
<g fill="None" fill-opacity="0.0" stroke="#00FF00" stroke-opacity="0.00" stroke-width="0.3"><path d="
M 184.00 127.00 
C 176.82 127.64 168.42 125.71 162.00 128.00
C 169.18 127.36 177.58 129.29 184.00 127.00 Z"/>
</g>
<g fill="None" fill-opacity="0.0" stroke="#369F3B" stroke-opacity="0.01" stroke-width="0.3"><path d="
M 324.00 128.00 
C 322.22 129.77 325.09 133.25 324.00 136.00
C 325.88 134.30 325.23 130.13 324.00 128.00 Z"/>
</g>
<g fill="None" fill-opacity="0.0" stroke="#008700" stroke-opacity="0.00" stroke-width="0.3"><path d="
M 354.00 128.00 
C 351.65 127.88 350.19 130.29 349.00 132.00
C 351.35 132.12 352.81 129.71 354.00 128.00 Z"/>
</g>
<g fill="None" fill-opacity="0.0" stroke="#249923" stroke-opacity="0.00" stroke-width="0.3"><path d="
M 379.00 130.00 
C 380.00 132.81 381.35 129.72 379.00 129.00
C 379.00 129.00 379.24 129.68 379.00 130.00 Z"/>
</g>
<g fill="None" fill-opacity="0.0" stroke="#387A3A" stroke-opacity="0.02" stroke-width="0.3"><path d="
M 155.00 175.00 
C 156.06 174.26 157.14 173.88 158.00 173.00
C 159.65 159.35 159.67 143.34 158.00 130.00
C 155.37 143.61 162.79 164.61 155.00 175.00 Z"/>
</g>
<g fill="None" fill-opacity="0.0" stroke="#028202" stroke-opacity="0.01" stroke-width="0.3"><path d="
M 187.00 130.00 
C 185.31 135.19 185.37 143.74 187.00 149.00
C 187.49 143.39 186.66 136.29 187.00 130.00 Z"/>
</g>
<g fill="None" fill-opacity="0.0" stroke="#124711" stroke-opacity="0.01" stroke-width="0.3"><path d="
M 206.00 134.00 
C 206.40 133.65 207.49 133.31 208.00 133.00
C 208.03 131.86 209.53 131.28 209.00 130.00
C 206.65 129.83 206.02 133.97 206.00 134.00 Z"/>
</g>
<g fill="None" fill-opacity="0.0" stroke="#0D2F12" stroke-opacity="0.01" stroke-width="0.3"><path d="
M 338.00 147.00 
C 337.55 147.71 337.62 149.18 337.00 150.00
C 343.48 145.10 349.22 138.35 354.00 132.00
C 349.83 135.05 343.42 142.37 338.00 147.00 Z"/>
</g>
<g fill="None" fill-opacity="0.0" stroke="#007315" stroke-opacity="0.00" stroke-width="0.3"><path d="
M 376.00 135.00 
C 375.44 135.39 376.52 137.38 377.73 134.75 C 378.95 132.13 376.85 133.72 377.00 133.00
C 376.65 133.67 376.44 134.35 376.00 135.00 Z"/>
</g>
<g fill="None" fill-opacity="0.0" stroke="#124711" stroke-opacity="0.01" stroke-width="0.3"><path d="
M 201.00 138.00 
C 201.40 137.65 202.49 137.31 203.00 137.00
C 203.03 135.86 204.53 135.28 204.00 134.00
C 201.65 133.83 201.02 137.97 201.00 138.00 Z"/>
</g>
<g fill="None" fill-opacity="0.0" stroke="#124711" stroke-opacity="0.01" stroke-width="0.3"><path d="
M 196.00 142.00 
C 196.40 141.65 197.49 141.31 198.00 141.00
C 198.03 139.86 199.53 139.28 199.00 138.00
C 196.65 137.83 196.02 141.97 196.00 142.00 Z"/>
</g>
<g fill="None" fill-opacity="0.0" stroke="#175616" stroke-opacity="0.01" stroke-width="0.3"><path d="
M 190.00 147.00 
C 190.85 146.30 192.08 145.70 193.00 145.00
C 193.03 143.86 194.53 143.28 194.00 142.00
C 190.83 141.96 188.88 148.69 190.00 147.00 Z"/>
</g>
<g fill="None" fill-opacity="0.0" stroke="#125A18" stroke-opacity="0.00" stroke-width="0.3"><path d="
M 334.00 152.00 
C 334.85 151.30 336.08 150.70 337.00 150.00
C 337.62 149.18 337.55 147.71 338.00 147.00
C 335.70 148.96 333.36 152.96 334.00 152.00 Z"/>
</g>
<g fill="None" fill-opacity="0.0" stroke="#3D9641" stroke-opacity="0.01" stroke-width="0.3"><path d="
M 306.00 150.00 
C 298.82 150.64 290.42 148.71 284.00 151.00
C 291.18 150.36 299.58 152.29 306.00 150.00 Z"/>
</g>
<g fill="None" fill-opacity="0.0" stroke="#1DB73B" stroke-opacity="0.01" stroke-width="0.3"><path d="
M 280.00 151.00 
C 272.74 149.83 274.95 153.87 280.00 151.00 Z"/>
</g>
<g fill="None" fill-opacity="0.0" stroke="#23A936" stroke-opacity="0.01" stroke-width="0.3"><path d="
M 272.00 152.00 
C 266.90 151.01 269.06 154.68 272.00 152.00 Z"/>
</g>
<g fill="None" fill-opacity="0.0" stroke="#1E9F67" stroke-opacity="0.01" stroke-width="0.3"><path d="
M 266.00 153.00 
C 260.90 152.01 263.06 155.68 266.00 153.00 Z"/>
</g>
<g fill="None" fill-opacity="0.0" stroke="#093E09" stroke-opacity="0.00" stroke-width="0.3"><path d="
M 326.00 156.00 
C 325.79 156.39 326.18 157.58 326.00 158.00
C 326.97 157.36 328.01 156.69 329.00 156.00
C 329.38 155.91 327.52 153.17 326.00 156.00 Z"/>
</g>
<g fill="None" fill-opacity="0.0" stroke="#3ABD38" stroke-opacity="0.01" stroke-width="0.3"><path d="
M 256.00 155.00 
C 254.34 153.34 256.61 155.61 256.00 155.00 Z"/>
</g>
<g fill="None" fill-opacity="0.0" stroke="#00AA55" stroke-opacity="0.01" stroke-width="0.3"><path d="
M 354.00 155.00 
C 353.18 154.18 354.74 155.74 354.00 155.00 Z"/>
</g>
<g fill="None" fill-opacity="0.0" stroke="#009400" stroke-opacity="0.00" stroke-width="0.3"><path d="
M 325.00 159.00 
C 324.90 158.81 325.69 158.21 326.00 158.00
C 326.18 157.58 325.79 156.39 326.00 156.00
C 324.67 156.96 321.28 160.98 325.00 159.00 Z"/>
</g>
<g fill="None" fill-opacity="0.0" stroke="#008000" stroke-opacity="0.01" stroke-width="0.3"><path d="
M 352.00 156.00 
C 351.18 155.18 352.74 156.74 352.00 156.00 Z"/>
</g>
<g fill="None" fill-opacity="0.0" stroke="#1BA52A" stroke-opacity="0.01" stroke-width="0.3"><path d="
M 246.00 157.00 
C 246.00 157.00 245.49 156.93 245.00 157.00
C 243.04 160.51 247.28 157.43 249.00 158.00
C 248.73 156.58 247.00 157.03 246.00 157.00 Z"/>
</g>
<g fill="None" fill-opacity="0.0" stroke="#2BA52A" stroke-opacity="0.01" stroke-width="0.3"><path d="
M 347.00 157.00 
C 347.00 157.00 346.48 156.91 346.00 157.00
C 344.04 160.51 348.28 157.43 350.00 158.00
C 349.73 156.58 348.00 157.03 347.00 157.00 Z"/>
</g>
<g fill="None" fill-opacity="0.0" stroke="#00AD22" stroke-opacity="0.00" stroke-width="0.3"><path d="
M 240.00 159.00 
C 240.00 159.00 239.46 158.86 239.00 159.00
C 238.68 162.29 241.29 159.21 243.00 160.00
C 242.73 158.58 241.00 159.03 240.00 159.00 Z"/>
</g>
<g fill="None" fill-opacity="0.0" stroke="#000000" stroke-opacity="0.00" stroke-width="0.3"><path d="
M 233.00 162.00 
C 233.35 161.97 233.74 161.12 234.00 161.00
C 233.65 161.03 233.26 161.88 233.00 162.00 Z"/>
</g>
<g fill="None" fill-opacity="0.0" stroke="#116A1C" stroke-opacity="0.01" stroke-width="0.3"><path d="
M 233.00 162.00 
C 233.00 162.00 232.36 161.77 232.00 162.00
C 232.10 165.12 238.60 161.73 235.00 161.00
C 235.00 161.00 234.50 160.95 234.00 161.00
C 233.74 161.12 233.35 161.97 233.00 162.00 Z"/>
</g>
<g fill="None" fill-opacity="0.0" stroke="#2A993F" stroke-opacity="0.96" stroke-width="0.3"><path d="
M 314.00 165.00 
C 313.53 165.11 313.00 165.00 313.00 165.00
C 312.29 165.47 311.84 165.57 311.00 166.00
C 307.93 167.57 304.49 169.63 301.00 171.00
C 300.57 171.17 300.00 171.00 300.00 171.00
C 299.74 171.12 299.33 171.83 299.00 172.00
C 295.72 173.70 292.43 175.65 289.00 177.00
C 288.57 177.17 288.00 177.00 288.00 177.00
C 282.74 181.22 275.91 184.32 270.00 188.00
C 269.43 188.36 268.50 188.63 268.00 189.00
C 266.13 190.40 264.26 191.84 262.00 193.00
C 261.40 193.31 260.53 193.65 260.00 194.00
C 257.42 195.72 254.73 198.11 252.00 200.00
C 251.05 200.66 249.84 201.31 249.00 202.00
C 247.09 203.57 245.17 205.40 243.00 207.00
C 242.09 207.67 240.80 208.29 240.00 209.00
C 236.91 211.71 233.80 214.72 231.00 218.00
C 227.11 222.55 222.75 227.41 218.00 231.00
C 217.11 231.68 215.78 232.29 215.00 233.00
C 213.77 234.44 212.41 236.87 211.00 238.00
C 210.32 240.42 208.82 239.43 208.00 238.00
C 207.56 243.68 203.23 247.16 200.00 252.00
C 199.58 252.63 199.38 253.39 199.00 254.00
C 197.73 256.03 196.26 258.15 195.00 260.00
C 194.55 260.65 194.35 261.32 194.00 262.00
C 192.75 264.45 191.64 266.96 190.00 269.00
C 189.76 269.30 190.00 270.00 190.00 270.00
C 188.91 272.79 187.22 275.26 186.00 278.00
C 186.26 279.16 187.17 278.71 188.00 279.00
C 190.18 278.40 195.34 269.87 197.00 268.00
C 198.38 266.45 199.69 264.53 201.00 263.00
C 211.18 251.09 223.07 239.54 235.77 230.77 C 248.47 222.00 263.76 210.57 279.00 207.00
C 279.47 206.89 280.00 207.00 280.00 207.00
C 291.71 197.50 332.71 199.78 320.00 223.00
C 319.79 223.38 320.00 224.00 320.00 224.00
C 319.87 225.97 318.70 226.58 318.00 228.00
C 317.29 229.44 316.88 230.71 316.00 232.00
C 315.55 232.65 315.35 233.32 315.00 234.00
C 313.66 236.04 310.88 242.84 309.00 239.00
C 307.99 242.11 307.61 243.64 306.00 246.00
C 305.08 247.35 303.98 248.78 303.00 250.00
C 302.08 251.14 301.04 251.96 300.00 253.00
C 299.05 253.95 297.91 255.10 297.00 256.00
C 295.38 257.59 293.82 259.45 292.00 261.00
C 289.73 262.94 287.62 264.70 285.00 266.00
C 284.73 266.17 284.35 266.97 284.00 267.00
C 283.50 267.05 283.00 267.00 283.00 267.00
C 280.09 271.66 271.88 273.43 267.07 276.07 C 262.26 278.72 254.46 280.98 249.00 282.00
C 248.52 282.09 248.00 282.00 248.00 282.00
C 242.72 284.89 235.71 284.76 230.00 287.00
C 229.39 287.24 228.95 287.76 228.00 288.00
C 225.31 288.68 222.66 289.36 220.00 290.00
C 217.51 290.60 215.40 290.93 213.00 292.00
C 210.89 292.94 208.53 294.41 206.00 295.00
C 205.53 295.11 205.00 295.00 205.00 295.00
C 194.56 303.37 181.77 307.42 173.00 319.00
C 171.97 320.36 170.90 321.78 170.00 323.00
C 169.00 324.36 167.84 325.78 167.00 327.00
C 166.55 327.65 166.35 328.32 166.00 329.00
C 165.97 330.14 164.47 330.72 165.00 332.00
C 224.47 329.67 285.09 331.67 345.00 331.00
C 345.00 294.67 345.00 258.33 345.00 222.00
C 363.33 222.00 381.67 222.00 400.00 222.00
C 395.08 214.18 383.69 203.89 374.00 199.00
C 372.70 198.34 371.31 197.93 370.00 197.00
C 367.51 195.23 365.24 192.84 363.00 191.00
C 362.09 190.26 360.89 189.68 360.00 189.00
C 354.16 184.59 348.66 179.38 343.00 175.00
C 340.37 172.96 337.54 171.17 335.00 169.00
C 325.74 161.08 324.88 162.44 314.00 165.00 Z"/>
</g>
<g fill="None" fill-opacity="0.0" stroke="#1EB238" stroke-opacity="0.01" stroke-width="0.3"><path d="
M 333.00 162.00 
C 327.34 158.59 326.12 164.59 333.00 162.00 Z"/>
</g>
<g fill="None" fill-opacity="0.0" stroke="#208530" stroke-opacity="0.01" stroke-width="0.3"><path d="
M 312.00 164.00 
C 312.16 164.00 312.65 164.97 313.00 165.00
C 313.00 165.00 313.53 165.11 314.00 165.00
C 315.44 162.90 313.20 162.47 312.00 164.00 Z"/>
</g>
<g fill="None" fill-opacity="0.0" stroke="#003D1B" stroke-opacity="0.00" stroke-width="0.3"><path d="
M 311.00 166.00 
C 311.84 165.57 312.29 165.47 313.00 165.00
C 312.65 164.97 312.16 164.00 312.00 164.00
C 310.71 164.01 307.69 166.12 311.00 166.00 Z"/>
</g>
<g fill="None" fill-opacity="0.0" stroke="#00AA55" stroke-opacity="0.01" stroke-width="0.3"><path d="
M 308.00 166.00 
C 307.18 165.18 308.74 166.74 308.00 166.00 Z"/>
</g>
<g fill="None" fill-opacity="0.0" stroke="#0D4713" stroke-opacity="0.00" stroke-width="0.3"><path d="
M 335.00 169.00 
C 337.54 171.17 340.37 172.96 343.00 175.00
C 345.92 173.48 336.30 168.81 334.00 166.00
C 333.86 167.17 334.41 168.07 335.00 169.00 Z"/>
</g>
<g fill="None" fill-opacity="0.0" stroke="#00FF00" stroke-opacity="0.00" stroke-width="0.3"><path d="
M 305.00 167.00 
C 304.18 166.18 305.74 167.74 305.00 167.00 Z"/>
</g>
<g fill="None" fill-opacity="0.0" stroke="#103E10" stroke-opacity="0.00" stroke-width="0.3"><path d="
M 289.00 175.00 
C 288.75 175.27 289.23 176.84 289.00 177.00
C 292.43 175.65 295.72 173.70 299.00 172.00
C 299.27 171.82 299.65 171.03 300.00 171.00
C 300.00 171.00 300.57 171.17 301.00 171.00
C 300.90 167.98 291.25 173.57 289.00 175.00 Z"/>
</g>
<g fill="None" fill-opacity="0.0" stroke="#000000" stroke-opacity="0.00" stroke-width="0.3"><path d="
M 299.00 172.00 
C 299.33 171.83 299.74 171.12 300.00 171.00
C 299.65 171.03 299.27 171.82 299.00 172.00 Z"/>
</g>
<g fill="None" fill-opacity="0.0" stroke="#009923" stroke-opacity="0.00" stroke-width="0.3"><path d="
M 288.00 177.00 
C 288.00 177.00 288.57 177.17 289.00 177.00
C 289.23 176.84 288.75 175.27 289.00 175.00
C 287.66 175.85 284.76 176.63 288.00 177.00 Z"/>
</g>
<g fill="None" fill-opacity="0.0" stroke="#093A0E" stroke-opacity="0.00" stroke-width="0.3"><path d="
M 199.00 183.00 
C 196.73 185.18 194.18 187.82 192.00 190.00
C 190.42 191.85 188.77 194.25 187.00 196.00
C 189.28 194.83 193.14 190.82 196.25 188.25 C 199.36 185.67 203.30 179.55 203.00 180.00
C 201.82 181.01 200.25 181.98 199.00 183.00 Z"/>
</g>
<g fill="None" fill-opacity="0.0" stroke="#0F3D16" stroke-opacity="0.01" stroke-width="0.3"><path d="
M 140.00 187.00 
C 140.85 186.30 142.08 185.70 143.00 185.00
C 143.88 184.61 141.73 182.69 140.76 184.75 C 139.79 186.82 140.25 186.66 140.00 187.00 Z"/>
</g>
<g fill="None" fill-opacity="0.0" stroke="#000000" stroke-opacity="0.00" stroke-width="0.3"><path d="
M 192.00 190.00 
C 194.18 187.82 196.73 185.18 199.00 183.00
C 196.44 185.10 194.19 187.44 192.00 190.00 Z"/>
</g>
<g fill="None" fill-opacity="0.0" stroke="#146813" stroke-opacity="0.00" stroke-width="0.3"><path d="
M 268.00 189.00 
C 268.50 188.63 269.43 188.36 270.00 188.00
C 271.87 183.33 266.75 190.33 268.00 189.00 Z"/>
</g>
<g fill="None" fill-opacity="0.0" stroke="#124218" stroke-opacity="0.01" stroke-width="0.3"><path d="
M 360.00 189.00 
C 360.89 189.68 362.09 190.26 363.00 191.00
C 363.02 191.03 363.12 189.45 361.75 188.27 C 360.39 187.09 359.31 188.69 360.00 189.00 Z"/>
</g>
<g fill="None" fill-opacity="0.0" stroke="#167A23" stroke-opacity="0.00" stroke-width="0.3"><path d="
M 260.00 194.00 
C 260.53 193.65 261.40 193.31 262.00 193.00
C 263.89 189.13 255.03 194.75 260.00 194.00 Z"/>
</g>
<g fill="None" fill-opacity="0.0" stroke="#0F3D16" stroke-opacity="0.01" stroke-width="0.3"><path d="
M 370.00 197.00 
C 371.31 197.93 372.70 198.34 374.00 199.00
C 372.98 198.17 372.61 197.77 371.75 196.27 C 370.90 194.77 369.03 196.57 370.00 197.00 Z"/>
</g>
<g fill="None" fill-opacity="0.0" stroke="#146B20" stroke-opacity="0.00" stroke-width="0.3"><path d="
M 185.00 198.00 
C 184.33 198.90 183.75 200.09 183.00 201.00
C 182.84 201.96 181.14 203.54 183.00 204.00
C 186.38 202.50 185.35 195.78 185.00 198.00 Z"/>
</g>
<g fill="None" fill-opacity="0.0" stroke="#18651F" stroke-opacity="0.01" stroke-width="0.3"><path d="
M 249.00 202.00 
C 249.84 201.31 251.05 200.66 252.00 200.00
C 252.25 199.91 251.14 197.97 249.24 200.23 C 247.33 202.49 248.81 202.29 249.00 202.00 Z"/>
</g>
<g fill="None" fill-opacity="0.0" stroke="#134C1A" stroke-opacity="0.01" stroke-width="0.3"><path d="
M 120.00 203.00 
C 120.40 202.65 121.49 202.31 122.00 202.00
C 122.03 200.86 123.53 200.28 123.00 199.00
C 120.65 198.83 120.02 202.97 120.00 203.00 Z"/>
</g>
<g fill="None" fill-opacity="0.0" stroke="#124711" stroke-opacity="0.01" stroke-width="0.3"><path d="
M 115.00 207.00 
C 115.40 206.65 116.49 206.31 117.00 206.00
C 117.03 204.86 118.53 204.28 118.00 203.00
C 115.65 202.83 115.02 206.97 115.00 207.00 Z"/>
</g>
<g fill="None" fill-opacity="0.0" stroke="#268B49" stroke-opacity="0.01" stroke-width="0.3"><path d="
M 309.00 203.00 
C 305.49 203.55 300.76 201.84 298.00 204.00
C 301.51 203.45 306.24 205.16 309.00 203.00 Z"/>
</g>
<g fill="None" fill-opacity="0.0" stroke="#3ABD38" stroke-opacity="0.01" stroke-width="0.3"><path d="
M 313.00 204.00 
C 311.34 202.34 313.61 204.61 313.00 204.00 Z"/>
</g>
<g fill="None" fill-opacity="0.0" stroke="#0F3D16" stroke-opacity="0.01" stroke-width="0.3"><path d="
M 240.00 209.00 
C 240.80 208.29 242.09 207.67 243.00 207.00
C 243.73 206.72 241.83 204.59 240.76 206.75 C 239.69 208.91 240.33 208.53 240.00 209.00 Z"/>
</g>
<g fill="None" fill-opacity="0.0" stroke="#008000" stroke-opacity="0.01" stroke-width="0.3"><path d="
M 315.00 205.00 
C 314.18 204.18 315.74 205.74 315.00 205.00 Z"/>
</g>
<g fill="None" fill-opacity="0.0" stroke="#104512" stroke-opacity="0.00" stroke-width="0.3"><path d="
M 104.00 216.00 
C 106.62 213.97 109.37 212.19 112.00 210.00
C 112.03 208.86 113.53 208.28 113.00 207.00
C 108.70 208.36 103.79 216.32 104.00 216.00 Z"/>
</g>
<g fill="None" fill-opacity="0.0" stroke="#1FAC2E" stroke-opacity="0.01" stroke-width="0.3"><path d="
M 280.00 207.00 
C 280.00 207.00 279.47 206.89 279.00 207.00
C 277.04 210.51 281.28 207.43 283.00 208.00
C 282.73 206.58 281.00 207.03 280.00 207.00 Z"/>
</g>
<g fill="None" fill-opacity="0.0" stroke="#125531" stroke-opacity="0.01" stroke-width="0.3"><path d="
M 177.00 209.00 
C 177.00 209.00 177.22 209.86 177.00 210.00
C 178.86 210.57 179.72 207.73 177.00 209.00 Z"/>
</g>
<g fill="None" fill-opacity="0.0" stroke="#00D343" stroke-opacity="0.01" stroke-width="0.3"><path d="
M 275.00 210.00 
C 273.34 208.34 275.61 210.61 275.00 210.00 Z"/>
</g>
<g fill="None" fill-opacity="0.0" stroke="#008000" stroke-opacity="0.01" stroke-width="0.3"><path d="
M 272.00 211.00 
C 271.18 210.18 272.74 211.74 272.00 211.00 Z"/>
</g>
<g fill="None" fill-opacity="0.0" stroke="#2F8047" stroke-opacity="0.01" stroke-width="0.3"><path d="
M 321.00 213.00 
C 318.11 216.91 322.21 219.27 321.00 213.00 Z"/>
</g>
<g fill="None" fill-opacity="0.0" stroke="#006800" stroke-opacity="0.00" stroke-width="0.3"><path d="
M 231.00 215.00 
C 226.21 216.78 230.63 219.74 231.00 215.00 Z"/>
</g>
<g fill="None" fill-opacity="0.0" stroke="#279745" stroke-opacity="0.69" stroke-width="0.3"><path d="
M 228.00 220.00 
C 224.96 222.88 222.17 226.29 219.00 229.00
C 218.52 229.51 218.41 230.52 218.00 231.00
C 222.75 227.41 227.11 222.55 231.00 218.00
C 230.03 218.76 228.86 219.19 228.00 220.00 Z"/>
</g>
<g fill="None" fill-opacity="0.0" stroke="#0C571F" stroke-opacity="0.01" stroke-width="0.3"><path d="
M 211.00 238.00 
C 212.41 236.87 213.77 234.44 215.00 233.00
C 216.31 231.47 217.52 230.26 219.00 229.00
C 222.17 226.29 224.96 222.88 228.00 220.00
C 224.74 221.50 220.74 224.99 217.25 228.25 C 213.75 231.51 211.22 237.66 211.00 238.00 Z"/>
</g>
<g fill="None" fill-opacity="0.0" stroke="#279126" stroke-opacity="0.01" stroke-width="0.3"><path d="
M 320.00 224.00 
C 320.00 224.00 319.79 223.38 320.00 223.00
C 319.78 222.05 320.39 220.26 319.00 220.00
C 319.50 221.60 316.65 226.24 320.00 224.00 Z"/>
</g>
<g fill="None" fill-opacity="0.0" stroke="#36A851" stroke-opacity="0.01" stroke-width="0.3"><path d="
M 152.00 223.00 
C 134.49 223.66 115.76 221.67 99.00 224.00
C 116.33 224.00 133.67 224.00 151.00 224.00
C 151.66 240.18 149.67 257.57 152.00 273.00
C 152.00 256.33 152.00 239.67 152.00 223.00 Z"/>
</g>
<g fill="None" fill-opacity="0.0" stroke="#05A954" stroke-opacity="0.01" stroke-width="0.3"><path d="
M 346.00 224.00 
C 346.00 223.96 347.00 224.00 347.00 224.00
C 364.18 223.34 382.57 225.33 399.00 223.00
C 391.39 224.40 379.15 221.13 372.00 223.00 C 364.85 224.87 350.84 218.96 346.00 224.00 Z"/>
</g>
<g fill="None" fill-opacity="0.0" stroke="#008080" stroke-opacity="0.01" stroke-width="0.3"><path d="
M 347.00 224.00 
C 347.00 224.00 346.00 223.96 346.00 224.00
C 346.67 259.52 344.67 296.24 347.00 331.00
C 344.59 295.55 350.22 259.37 347.00 224.00 Z"/>
</g>
<g fill="None" fill-opacity="0.0" stroke="#003E26" stroke-opacity="0.00" stroke-width="0.3"><path d="
M 315.00 231.00 
C 314.99 231.15 315.96 231.65 316.00 232.00
C 316.88 230.71 317.29 229.44 318.00 228.00
C 319.12 226.91 316.26 228.26 315.00 231.00 Z"/>
</g>
<g fill="None" fill-opacity="0.0" stroke="#000000" stroke-opacity="0.00" stroke-width="0.3"><path d="
M 215.00 233.00 
C 215.78 232.29 217.11 231.68 218.00 231.00
C 218.41 230.52 218.52 229.51 219.00 229.00
C 217.52 230.26 216.31 231.47 215.00 233.00 Z"/>
</g>
<g fill="None" fill-opacity="0.0" stroke="#187017" stroke-opacity="0.00" stroke-width="0.3"><path d="
M 315.00 234.00 
C 315.35 233.32 315.55 232.65 316.00 232.00
C 315.96 231.65 314.99 231.15 315.00 231.00
C 314.83 231.38 311.95 235.62 315.00 234.00 Z"/>
</g>
<g fill="None" fill-opacity="0.0" stroke="#0F3B13" stroke-opacity="0.01" stroke-width="0.3"><path d="
M 303.00 250.00 
C 303.98 248.78 305.08 247.35 306.00 246.00
C 304.24 244.68 301.46 249.39 300.00 251.00
C 301.15 251.10 302.10 250.63 303.00 250.00 Z"/>
</g>
<g fill="None" fill-opacity="0.0" stroke="#3ABD38" stroke-opacity="0.01" stroke-width="0.3"><path d="
M 161.00 250.00 
C 160.23 249.23 162.79 251.79 161.00 250.00 Z"/>
</g>
<g fill="None" fill-opacity="0.0" stroke="#237A22" stroke-opacity="0.00" stroke-width="0.3"><path d="
M 199.00 254.00 
C 199.38 253.39 199.58 252.63 200.00 252.00
C 201.37 251.05 198.43 250.41 198.27 252.25 C 198.10 254.08 196.94 255.01 199.00 254.00 Z"/>
</g>
<g fill="None" fill-opacity="0.0" stroke="#196518" stroke-opacity="0.00" stroke-width="0.3"><path d="
M 297.00 256.00 
C 297.91 255.10 299.05 253.95 300.00 253.00
C 300.71 252.63 299.29 251.24 298.25 253.25 C 297.21 255.25 297.29 255.56 297.00 256.00 Z"/>
</g>
<g fill="None" fill-opacity="0.0" stroke="#209C2F" stroke-opacity="0.01" stroke-width="0.3"><path d="
M 158.00 254.00 
C 159.44 253.94 158.74 255.92 160.00 256.00
C 160.89 254.59 158.94 253.09 159.00 252.00
C 158.70 252.77 158.26 252.86 158.00 254.00 Z"/>
</g>
<g fill="None" fill-opacity="0.0" stroke="#007017" stroke-opacity="0.00" stroke-width="0.3"><path d="
M 194.00 262.00 
C 194.35 261.32 194.55 260.65 195.00 260.00
C 196.58 258.40 189.22 263.91 194.00 262.00 Z"/>
</g>
<g fill="None" fill-opacity="0.0" stroke="#0E3A1C" stroke-opacity="0.01" stroke-width="0.3"><path d="
M 283.00 267.00 
C 283.00 267.00 283.50 267.05 284.00 267.00
C 284.26 266.88 284.67 266.17 285.00 266.00
C 287.62 264.70 289.73 262.94 292.00 261.00
C 293.92 260.14 280.24 264.35 283.00 267.00 Z"/>
</g>
<g fill="None" fill-opacity="0.0" stroke="#29B33B" stroke-opacity="0.01" stroke-width="0.3"><path d="
M 158.00 262.00 
C 155.19 264.83 159.13 267.21 158.00 262.00 Z"/>
</g>
<g fill="None" fill-opacity="0.0" stroke="#0F4316" stroke-opacity="0.01" stroke-width="0.3"><path d="
M 201.00 263.00 
C 199.69 264.53 198.38 266.45 197.00 268.00
C 199.09 269.02 202.22 263.93 204.00 262.00
C 202.83 261.86 201.93 262.41 201.00 263.00 Z"/>
</g>
<g fill="None" fill-opacity="0.0" stroke="#000000" stroke-opacity="0.00" stroke-width="0.3"><path d="
M 284.00 267.00 
C 284.35 266.97 284.73 266.17 285.00 266.00
C 284.67 266.17 284.26 266.88 284.00 267.00 Z"/>
</g>
<g fill="None" fill-opacity="0.0" stroke="#2DA163" stroke-opacity="0.01" stroke-width="0.3"><path d="
M 157.00 267.00 
C 154.10 270.91 158.21 273.27 157.00 267.00 Z"/>
</g>
<g fill="None" fill-opacity="0.0" stroke="#009923" stroke-opacity="0.00" stroke-width="0.3"><path d="
M 190.00 270.00 
C 190.00 270.00 189.76 269.30 190.00 269.00
C 188.14 268.43 187.28 271.27 190.00 270.00 Z"/>
</g>
<g fill="None" fill-opacity="0.0" stroke="#008000" stroke-opacity="0.01" stroke-width="0.3"><path d="
M 188.00 271.00 
C 187.18 270.18 188.74 271.74 188.00 271.00 Z"/>
</g>
<g fill="None" fill-opacity="0.0" stroke="#00FF00" stroke-opacity="0.00" stroke-width="0.3"><path d="
M 269.00 273.00 
C 268.18 272.18 269.74 273.74 269.00 273.00 Z"/>
</g>
<g fill="None" fill-opacity="0.0" stroke="#279455" stroke-opacity="0.05" stroke-width="0.3"><path d="
M 155.00 274.00 
C 154.92 274.19 153.08 274.19 153.00 274.00
C 153.08 274.57 154.04 277.92 155.00 274.00 Z"/>
</g>
<g fill="None" fill-opacity="0.0" stroke="#187326" stroke-opacity="0.08" stroke-width="0.3"><path d="
M 188.00 279.00 
C 187.17 278.71 186.26 279.16 186.00 278.00
C 182.71 277.68 185.79 280.28 185.00 282.00
C 186.75 281.70 191.70 280.30 188.00 279.00 Z"/>
</g>
<g fill="None" fill-opacity="0.0" stroke="#24942E" stroke-opacity="0.01" stroke-width="0.3"><path d="
M 248.00 282.00 
C 248.00 282.00 248.52 282.09 249.00 282.00
C 252.83 278.75 247.16 281.01 245.00 281.00
C 245.27 282.42 247.00 281.97 248.00 282.00 Z"/>
</g>
<g fill="None" fill-opacity="0.0" stroke="#00D343" stroke-opacity="0.01" stroke-width="0.3"><path d="
M 243.00 282.00 
C 241.34 280.34 243.61 282.61 243.00 282.00 Z"/>
</g>
<g fill="None" fill-opacity="0.0" stroke="#209C2F" stroke-opacity="0.01" stroke-width="0.3"><path d="
M 228.00 288.00 
C 228.95 287.76 229.39 287.24 230.00 287.00
C 228.69 286.46 227.56 285.59 226.00 286.00
C 226.17 286.57 227.61 287.90 228.00 288.00 Z"/>
</g>
<g fill="None" fill-opacity="0.0" stroke="#0F9B2C" stroke-opacity="0.01" stroke-width="0.3"><path d="
M 213.00 292.00 
C 215.40 290.93 217.51 290.60 220.00 290.00
C 219.94 288.56 221.92 289.26 222.00 288.00
C 217.81 286.28 211.56 293.25 213.00 292.00 Z"/>
</g>
<g fill="None" fill-opacity="0.0" stroke="#209C2F" stroke-opacity="0.01" stroke-width="0.3"><path d="
M 205.00 295.00 
C 205.00 295.00 205.53 295.11 206.00 295.00
C 208.28 291.59 200.84 294.15 205.00 295.00 Z"/>
</g>
<g fill="None" fill-opacity="0.0" stroke="#15721C" stroke-opacity="0.00" stroke-width="0.3"><path d="
M 168.00 323.00 
C 168.43 322.83 169.59 323.19 170.00 323.00
C 170.90 321.78 171.97 320.36 173.00 319.00
C 173.96 318.33 169.92 320.45 168.00 323.00 Z"/>
</g>
<g fill="None" fill-opacity="0.0" stroke="#032311" stroke-opacity="0.00" stroke-width="0.3"><path d="
M 166.00 326.00 
C 166.06 326.23 166.96 326.65 167.00 327.00
C 167.84 325.78 169.00 324.36 170.00 323.00
C 169.59 323.19 168.43 322.83 168.00 323.00
C 167.33 323.89 166.62 325.01 166.00 326.00 Z"/>
</g>
<g fill="None" fill-opacity="0.0" stroke="#007017" stroke-opacity="0.00" stroke-width="0.3"><path d="
M 166.00 329.00 
C 166.35 328.32 166.55 327.65 167.00 327.00
C 166.96 326.65 166.06 326.23 166.00 326.00
C 164.06 329.12 165.61 327.46 166.00 329.00 Z"/>
</g>
<g fill="#000000" fill-opacity="0.00" stroke="None">
<path d="
M 0.00 400.00 
L 500.00 400.00
L 500.00 0.00
L 0.00 0.00
L 0.00 400.00
M 379.00 129.00 
C 381.35 129.72 380.00 132.81 379.00 130.00
C 378.31 130.92 377.60 131.86 377.00 133.00
C 376.85 133.72 378.95 132.13 377.73 134.75 C 376.52 137.38 375.44 135.39 376.00 135.00
C 368.71 145.92 357.93 151.28 347.00 157.00
C 348.00 157.03 349.73 156.58 350.00 158.00
C 348.28 157.43 344.04 160.51 346.00 157.00
C 342.44 157.66 327.38 163.27 325.00 159.00
C 321.28 160.98 324.67 156.96 326.00 156.00
C 327.52 153.17 329.38 155.91 329.00 156.00
C 330.87 154.71 332.39 153.32 334.00 152.00
C 333.36 152.96 335.70 148.96 338.00 147.00
C 343.42 142.37 349.83 135.05 354.00 132.00
C 354.87 130.84 355.27 130.26 356.00 129.00
C 355.94 129.18 356.44 123.71 357.00 128.00
C 362.02 122.78 369.39 110.53 369.00 103.00
C 368.86 103.22 368.00 103.00 368.00 103.00
C 364.95 113.59 360.85 118.07 353.00 126.00
C 351.37 127.65 349.66 129.45 348.00 131.00
C 343.85 135.53 330.30 144.47 326.70 136.30 C 323.10 128.14 330.07 117.66 335.00 112.00
C 335.57 110.94 335.92 110.82 337.25 108.25 C 338.58 105.68 341.79 106.70 341.00 107.00
C 349.37 100.39 364.97 96.16 369.00 85.00
C 366.65 84.28 368.00 81.20 369.00 84.00
C 371.12 81.53 370.97 79.01 372.00 76.00
C 372.05 74.38 369.96 72.00 371.00 70.00
C 372.98 70.47 370.89 73.60 373.00 74.00
C 373.13 72.34 372.90 70.66 373.00 69.00
C 379.91 75.64 380.83 86.94 382.99 97.01 C 385.16 107.08 383.06 119.59 379.00 129.00
M 371.00 76.00 
C 372.79 77.79 370.23 75.23 371.00 76.00
M 382.00 82.00 
C 383.79 83.79 381.23 81.23 382.00 82.00
M 300.00 89.00 
C 294.95 91.87 292.74 87.83 300.00 89.00
M 384.00 89.00 
C 385.13 94.21 381.19 91.83 384.00 89.00
M 304.00 92.00 
C 299.98 88.93 305.93 90.92 308.00 91.00
C 307.74 92.39 305.95 91.78 305.00 92.00
C 307.80 93.47 311.23 94.94 314.00 97.00
C 314.65 97.22 319.60 97.95 320.00 102.00
C 320.15 103.57 320.46 102.95 321.00 104.00
C 321.59 104.00 322.75 102.75 324.00 107.00
C 326.07 114.05 323.57 124.12 321.00 131.00
C 318.17 122.79 316.02 112.91 310.00 106.00
C 309.75 106.25 309.00 106.00 309.00 106.00
C 314.04 113.40 316.06 134.14 304.00 121.00
C 304.83 122.28 306.18 123.32 306.00 125.00
C 304.32 123.62 298.47 118.41 302.00 118.00
C 296.82 109.39 300.82 95.26 289.00 91.00
C 293.02 89.74 299.24 91.50 304.00 92.00
M 385.00 95.00 
C 386.26 102.32 382.06 99.99 385.00 95.00
M 252.00 102.00 
C 252.58 103.13 253.07 103.33 254.00 104.00
C 254.70 104.15 255.58 102.53 258.00 106.00
C 258.50 106.05 259.00 106.00 259.00 106.00
C 260.78 106.87 261.94 108.49 263.00 110.00
C 263.48 110.10 264.00 110.00 264.00 110.00
C 265.78 110.87 266.94 112.49 268.00 114.00
C 268.48 114.10 269.00 114.00 269.00 114.00
C 270.88 114.92 271.60 116.85 273.00 118.00
C 286.79 125.28 300.78 139.03 310.00 150.00
C 288.47 147.33 265.49 149.98 246.00 157.00
C 247.00 157.03 248.73 156.58 249.00 158.00
C 247.28 157.43 243.04 160.51 245.00 157.00
C 243.10 157.26 241.39 158.00 240.00 159.00
C 241.00 159.03 242.73 158.58 243.00 160.00
C 241.29 159.21 238.68 162.29 239.00 159.00
C 237.48 159.47 236.15 160.30 235.00 161.00
C 238.60 161.73 232.10 165.12 232.00 162.00
C 222.20 168.17 211.94 172.33 203.00 180.00
C 203.30 179.55 199.36 185.67 196.25 188.25 C 193.14 190.82 189.28 194.83 187.00 196.00
C 186.23 196.76 185.65 197.12 185.00 198.00
C 185.35 195.78 186.38 202.50 183.00 204.00
C 181.14 203.54 182.84 201.96 183.00 201.00
C 180.92 203.54 178.81 206.09 177.00 209.00
C 179.72 207.73 178.86 210.57 177.00 210.00
C 170.82 213.86 170.35 223.34 166.23 229.23 C 162.10 235.12 161.59 245.39 159.00 252.00
C 158.94 253.09 160.89 254.59 160.00 256.00
C 158.74 255.92 159.44 253.94 158.00 254.00
C 156.71 259.60 157.26 268.91 155.00 274.00
C 154.04 277.92 153.08 274.57 153.00 274.00
C 149.78 266.76 154.68 255.92 153.00 248.00 C 151.32 240.08 154.26 230.11 153.00 222.00
C 134.83 221.33 115.34 223.33 98.00 221.00
C 99.90 219.13 102.70 218.27 104.00 216.00
C 103.79 216.32 108.70 208.36 113.00 207.00
C 113.53 208.28 112.03 208.86 112.00 210.00
C 113.07 209.12 114.07 207.80 115.00 207.00
C 115.02 206.97 115.65 202.83 118.00 203.00
C 118.53 204.28 117.03 204.86 117.00 206.00
C 118.37 205.17 118.95 203.90 120.00 203.00
C 120.02 202.97 120.65 198.83 123.00 199.00
C 123.53 200.28 122.03 200.86 122.00 202.00
C 128.52 198.03 134.31 191.68 140.00 187.00
C 140.25 186.66 139.79 186.82 140.76 184.75 C 141.73 182.69 143.88 184.61 143.00 185.00
C 147.13 181.88 150.98 177.80 155.00 175.00
C 162.79 164.61 155.37 143.61 158.00 130.00
C 159.67 143.34 159.65 159.35 158.00 173.00
C 162.72 168.18 159.05 158.83 160.00 152.00 C 160.95 145.17 159.29 136.04 160.00 129.00
C 168.33 129.00 176.67 129.00 185.00 129.00
C 185.00 136.33 185.00 143.67 185.00 151.00
C 186.55 149.45 189.17 149.17 190.00 147.00
C 188.88 148.69 190.83 141.96 194.00 142.00
C 194.53 143.28 193.03 143.86 193.00 145.00
C 194.16 144.12 195.02 142.84 196.00 142.00
C 196.02 141.97 196.65 137.83 199.00 138.00
C 199.53 139.28 198.03 139.86 198.00 141.00
C 199.37 140.17 199.95 138.90 201.00 138.00
C 201.02 137.97 201.65 133.83 204.00 134.00
C 204.53 135.28 203.03 135.86 203.00 137.00
C 204.37 136.17 204.95 134.90 206.00 134.00
C 206.02 133.97 206.65 129.83 209.00 130.00
C 209.53 131.28 208.03 131.86 208.00 133.00
C 209.37 132.17 209.95 130.90 211.00 130.00
C 211.02 129.97 211.65 125.83 214.00 126.00
C 214.53 127.28 213.03 127.86 213.00 129.00
C 214.37 128.17 214.95 126.90 216.00 126.00
C 216.02 125.97 216.65 121.83 219.00 122.00
C 219.53 123.28 218.03 123.86 218.00 125.00
C 219.37 124.17 219.95 122.90 221.00 122.00
C 221.02 121.97 221.65 117.83 224.00 118.00
C 224.53 119.28 223.03 119.86 223.00 121.00
C 224.37 120.17 224.95 118.90 226.00 118.00
C 226.02 117.97 226.65 113.83 229.00 114.00
C 229.53 115.28 228.03 115.86 228.00 117.00
C 229.39 116.15 229.95 114.98 231.00 114.00
C 231.47 113.25 230.43 114.10 231.76 111.75 C 233.09 109.40 234.28 111.94 234.00 112.00
C 234.88 111.34 235.30 110.68 236.00 110.00
C 236.50 109.04 235.41 110.17 236.76 107.75 C 238.11 105.33 239.26 107.94 239.00 108.00
C 239.88 107.34 240.30 106.68 241.00 106.00
C 241.50 105.04 240.41 106.17 241.76 103.75 C 243.11 101.33 244.26 103.94 244.00 104.00
C 244.98 103.27 245.44 103.12 246.00 102.00
C 246.67 100.68 247.78 99.40 249.00 98.00
C 250.04 98.82 253.81 100.91 252.00 102.00
M 298.00 104.00 
C 299.26 111.32 295.06 108.99 298.00 104.00
M 326.00 112.00 
C 323.92 118.28 329.54 121.48 326.00 125.00
C 325.01 121.16 323.89 115.38 326.00 112.00
M 385.00 112.00 
C 386.21 118.27 382.10 115.91 385.00 112.00
M 316.00 118.00 
C 318.57 124.21 312.86 122.75 316.00 118.00
M 325.00 124.00 
C 327.79 128.83 322.21 127.36 325.00 124.00
M 355.00 126.00 
C 355.74 126.74 354.18 125.18 355.00 126.00
M 184.00 127.00 
C 177.58 129.29 169.18 127.36 162.00 128.00
C 168.42 125.71 176.82 127.64 184.00 127.00
M 324.00 128.00 
C 325.23 130.13 325.88 134.30 324.00 136.00
C 325.09 133.25 322.22 129.77 324.00 128.00
M 354.00 128.00 
C 352.81 129.71 351.35 132.12 349.00 132.00
C 350.19 130.29 351.65 127.88 354.00 128.00
M 187.00 130.00 
C 186.66 136.29 187.49 143.39 187.00 149.00
C 185.37 143.74 185.31 135.19 187.00 130.00
M 306.00 150.00 
C 299.58 152.29 291.18 150.36 284.00 151.00
C 290.42 148.71 298.82 150.64 306.00 150.00
M 280.00 151.00 
C 274.95 153.87 272.74 149.83 280.00 151.00
M 272.00 152.00 
C 269.06 154.68 266.90 151.01 272.00 152.00
M 266.00 153.00 
C 263.06 155.68 260.90 152.01 266.00 153.00
M 256.00 155.00 
C 256.61 155.61 254.34 153.34 256.00 155.00
M 354.00 155.00 
C 354.74 155.74 353.18 154.18 354.00 155.00
M 352.00 156.00 
C 352.74 156.74 351.18 155.18 352.00 156.00
M 335.00 169.00 
C 334.41 168.07 333.86 167.17 334.00 166.00
C 336.30 168.81 345.92 173.48 343.00 175.00
C 348.66 179.38 354.16 184.59 360.00 189.00
C 359.31 188.69 360.39 187.09 361.75 188.27 C 363.12 189.45 363.02 191.03 363.00 191.00
C 365.24 192.84 367.51 195.23 370.00 197.00
C 369.03 196.57 370.90 194.77 371.75 196.27 C 372.61 197.77 372.98 198.17 374.00 199.00
C 383.69 203.89 395.08 214.18 400.00 222.00
C 381.67 222.00 363.33 222.00 345.00 222.00
C 345.00 258.33 345.00 294.67 345.00 331.00
C 285.09 331.67 224.47 329.67 165.00 332.00
C 164.47 330.72 165.97 330.14 166.00 329.00
C 165.61 327.46 164.06 329.12 166.00 326.00
C 166.62 325.01 167.33 323.89 168.00 323.00
C 169.92 320.45 173.96 318.33 173.00 319.00
C 181.77 307.42 194.56 303.37 205.00 295.00
C 200.84 294.15 208.28 291.59 206.00 295.00
C 208.53 294.41 210.89 292.94 213.00 292.00
C 211.56 293.25 217.81 286.28 222.00 288.00
C 221.92 289.26 219.94 288.56 220.00 290.00
C 222.66 289.36 225.31 288.68 228.00 288.00
C 227.61 287.90 226.17 286.57 226.00 286.00
C 227.56 285.59 228.69 286.46 230.00 287.00
C 235.71 284.76 242.72 284.89 248.00 282.00
C 247.00 281.97 245.27 282.42 245.00 281.00
C 247.16 281.01 252.83 278.75 249.00 282.00
C 254.46 280.98 262.26 278.72 267.07 276.07 C 271.88 273.43 280.09 271.66 283.00 267.00
C 280.24 264.35 293.92 260.14 292.00 261.00
C 293.82 259.45 295.38 257.59 297.00 256.00
C 297.29 255.56 297.21 255.25 298.25 253.25 C 299.29 251.24 300.71 252.63 300.00 253.00
C 301.04 251.96 302.08 251.14 303.00 250.00
C 302.10 250.63 301.15 251.10 300.00 251.00
C 301.46 249.39 304.24 244.68 306.00 246.00
C 307.61 243.64 307.99 242.11 309.00 239.00
C 310.88 242.84 313.66 236.04 315.00 234.00
C 311.95 235.62 314.83 231.38 315.00 231.00
C 316.26 228.26 319.12 226.91 318.00 228.00
C 318.70 226.58 319.87 225.97 320.00 224.00
C 316.65 226.24 319.50 221.60 319.00 220.00
C 320.39 220.26 319.78 222.05 320.00 223.00
C 332.71 199.78 291.71 197.50 280.00 207.00
C 281.00 207.03 282.73 206.58 283.00 208.00
C 281.28 207.43 277.04 210.51 279.00 207.00
C 263.76 210.57 248.47 222.00 235.77 230.77 C 223.07 239.54 211.18 251.09 201.00 263.00
C 201.93 262.41 202.83 261.86 204.00 262.00
C 202.22 263.93 199.09 269.02 197.00 268.00
C 195.34 269.87 190.18 278.40 188.00 279.00
C 191.70 280.30 186.75 281.70 185.00 282.00
C 185.79 280.28 182.71 277.68 186.00 278.00
C 187.22 275.26 188.91 272.79 190.00 270.00
C 187.28 271.27 188.14 268.43 190.00 269.00
C 191.64 266.96 192.75 264.45 194.00 262.00
C 189.22 263.91 196.58 258.40 195.00 260.00
C 196.26 258.15 197.73 256.03 199.00 254.00
C 196.94 255.01 198.10 254.08 198.27 252.25 C 198.43 250.41 201.37 251.05 200.00 252.00
C 203.23 247.16 207.56 243.68 208.00 238.00
C 208.82 239.43 210.32 240.42 211.00 238.00
C 211.22 237.66 213.75 231.51 217.25 228.25 C 220.74 224.99 224.74 221.50 228.00 220.00
C 228.86 219.19 230.03 218.76 231.00 218.00
C 233.80 214.72 236.91 211.71 240.00 209.00
C 240.33 208.53 239.69 208.91 240.76 206.75 C 241.83 204.59 243.73 206.72 243.00 207.00
C 245.17 205.40 247.09 203.57 249.00 202.00
C 248.81 202.29 247.33 202.49 249.24 200.23 C 251.14 197.97 252.25 199.91 252.00 200.00
C 254.73 198.11 257.42 195.72 260.00 194.00
C 255.03 194.75 263.89 189.13 262.00 193.00
C 264.26 191.84 266.13 190.40 268.00 189.00
C 266.75 190.33 271.87 183.33 270.00 188.00
C 275.91 184.32 282.74 181.22 288.00 177.00
C 284.76 176.63 287.66 175.85 289.00 175.00
C 291.25 173.57 300.90 167.98 301.00 171.00
C 304.49 169.63 307.93 167.57 311.00 166.00
C 307.69 166.12 310.71 164.01 312.00 164.00
C 313.20 162.47 315.44 162.90 314.00 165.00
C 324.88 162.44 325.74 161.08 335.00 169.00
M 333.00 162.00 
C 326.12 164.59 327.34 158.59 333.00 162.00
M 308.00 166.00 
C 308.74 166.74 307.18 165.18 308.00 166.00
M 305.00 167.00 
C 305.74 167.74 304.18 166.18 305.00 167.00
M 309.00 203.00 
C 306.24 205.16 301.51 203.45 298.00 204.00
C 300.76 201.84 305.49 203.55 309.00 203.00
M 313.00 204.00 
C 313.61 204.61 311.34 202.34 313.00 204.00
M 315.00 205.00 
C 315.74 205.74 314.18 204.18 315.00 205.00
M 275.00 210.00 
C 275.61 210.61 273.34 208.34 275.00 210.00
M 272.00 211.00 
C 272.74 211.74 271.18 210.18 272.00 211.00
M 321.00 213.00 
C 322.21 219.27 318.11 216.91 321.00 213.00
M 231.00 215.00 
C 230.63 219.74 226.21 216.78 231.00 215.00
M 152.00 223.00 
C 152.00 239.67 152.00 256.33 152.00 273.00
C 149.67 257.57 151.66 240.18 151.00 224.00
C 133.67 224.00 116.33 224.00 99.00 224.00
C 115.76 221.67 134.49 223.66 152.00 223.00
M 347.00 224.00 
C 350.22 259.37 344.59 295.55 347.00 331.00
C 344.67 296.24 346.67 259.52 346.00 224.00
C 350.84 218.96 364.85 224.87 372.00 223.00 C 379.15 221.13 391.39 224.40 399.00 223.00
C 382.57 225.33 364.18 223.34 347.00 224.00
M 161.00 250.00 
C 162.79 251.79 160.23 249.23 161.00 250.00
M 158.00 262.00 
C 159.13 267.21 155.19 264.83 158.00 262.00
M 157.00 267.00 
C 158.21 273.27 154.10 270.91 157.00 267.00
M 188.00 271.00 
C 188.74 271.74 187.18 270.18 188.00 271.00
M 269.00 273.00 
C 269.74 273.74 268.18 272.18 269.00 273.00
M 243.00 282.00 
C 243.61 282.61 241.34 280.34 243.00 282.00 Z"/>
</g>
<g fill="#2A993F" fill-opacity="0.92" stroke="None">
<path d="
M 373.00 74.00 
C 372.89 75.42 372.30 75.11 372.00 76.00
C 370.97 79.01 371.12 81.53 369.00 84.00
C 368.75 84.29 369.00 85.00 369.00 85.00
C 364.97 96.16 349.37 100.39 341.00 107.00
C 339.13 108.47 336.50 110.28 335.00 112.00
C 330.07 117.66 323.10 128.14 326.70 136.30 C 330.30 144.47 343.85 135.53 348.00 131.00
C 349.64 129.21 351.20 127.55 353.00 126.00
C 360.85 118.07 364.95 113.59 368.00 103.00
C 368.27 101.98 369.40 101.25 369.00 100.00
C 370.28 100.22 370.42 102.81 369.00 103.00
C 369.39 110.53 362.02 122.78 357.00 128.00
C 356.75 128.26 356.16 128.73 356.00 129.00
C 355.27 130.26 354.87 130.84 354.00 132.00
C 349.22 138.35 343.48 145.10 337.00 150.00
C 336.08 150.70 334.85 151.30 334.00 152.00
C 332.39 153.32 330.87 154.71 329.00 156.00
C 328.01 156.69 326.97 157.36 326.00 158.00
C 325.69 158.21 324.90 158.81 325.00 159.00
C 327.38 163.27 342.44 157.66 346.00 157.00
C 346.48 156.91 347.00 157.00 347.00 157.00
C 357.93 151.28 368.71 145.92 376.00 135.00
C 376.44 134.35 376.65 133.67 377.00 133.00
C 377.60 131.86 378.31 130.92 379.00 130.00
C 379.24 129.68 379.00 129.00 379.00 129.00
C 383.06 119.59 385.16 107.08 382.99 97.01 C 380.83 86.94 379.91 75.64 373.00 69.00
C 372.90 70.66 373.13 72.34 373.00 74.00 Z"/>
</g>
<g fill="#15A03F" fill-opacity="0.01" stroke="None">
<path d="
M 372.00 76.00 
C 372.30 75.11 372.89 75.42 373.00 74.00
C 370.89 73.60 372.98 70.47 371.00 70.00
C 369.96 72.00 372.05 74.38 372.00 76.00 Z"/>
</g>
<g fill="#00D343" fill-opacity="0.01" stroke="None">
<path d="
M 371.00 76.00 
C 370.23 75.23 372.79 77.79 371.00 76.00 Z"/>
</g>
<g fill="#249923" fill-opacity="0.00" stroke="None">
<path d="
M 369.00 85.00 
C 369.00 85.00 368.75 84.29 369.00 84.00
C 368.00 81.20 366.65 84.28 369.00 85.00 Z"/>
</g>
<g fill="#3ABD38" fill-opacity="0.01" stroke="None">
<path d="
M 382.00 82.00 
C 381.23 81.23 383.79 83.79 382.00 82.00 Z"/>
</g>
<g fill="#2EB754" fill-opacity="0.01" stroke="None">
<path d="
M 300.00 89.00 
C 292.74 87.83 294.95 91.87 300.00 89.00 Z"/>
</g>
<g fill="#37A936" fill-opacity="0.01" stroke="None">
<path d="
M 384.00 89.00 
C 381.19 91.83 385.13 94.21 384.00 89.00 Z"/>
</g>
<g fill="#29983E" fill-opacity="0.84" stroke="None">
<path d="
M 302.00 118.00 
C 302.55 118.92 303.32 120.26 304.00 121.00
C 316.06 134.14 314.04 113.40 309.00 106.00
C 308.12 105.25 306.84 103.89 306.00 103.00
C 305.09 102.05 303.19 101.58 303.00 100.00
C 306.19 99.46 308.43 102.79 310.00 105.00
C 310.20 105.40 310.00 106.00 310.00 106.00
C 316.02 112.91 318.17 122.79 321.00 131.00
C 323.57 124.12 326.07 114.05 324.00 107.00
C 323.28 105.96 321.90 105.75 321.00 104.00
C 320.46 102.95 320.15 103.57 320.00 102.00
C 318.76 100.26 315.69 98.26 314.00 97.00
C 311.23 94.94 307.80 93.47 305.00 92.00
C 304.61 91.79 304.00 92.00 304.00 92.00
C 299.24 91.50 293.02 89.74 289.00 91.00
C 300.82 95.26 296.82 109.39 302.00 118.00 Z"/>
</g>
<g fill="#2BAC35" fill-opacity="0.01" stroke="None">
<path d="
M 304.00 92.00 
C 304.00 92.00 304.61 91.79 305.00 92.00
C 305.95 91.78 307.74 92.39 308.00 91.00
C 305.93 90.92 299.98 88.93 304.00 92.00 Z"/>
</g>
<g fill="#0B3813" fill-opacity="0.01" stroke="None">
<path d="
M 314.00 97.00 
C 315.69 98.26 318.76 100.26 320.00 102.00
C 319.60 97.95 314.65 97.22 314.00 97.00 Z"/>
</g>
<g fill="#2FB73A" fill-opacity="0.01" stroke="None">
<path d="
M 385.00 95.00 
C 382.06 99.99 386.26 102.32 385.00 95.00 Z"/>
</g>
<g fill="#175C20" fill-opacity="0.03" stroke="None">
<path d="
M 246.00 102.00 
C 247.42 101.06 250.53 101.02 252.00 102.00
C 253.81 100.91 250.04 98.82 249.00 98.00
C 247.78 99.40 246.67 100.68 246.00 102.00 Z"/>
</g>
<g fill="#2A9740" fill-opacity="0.58" stroke="None">
<path d="
M 306.00 103.00 
C 305.91 102.93 309.05 104.00 310.00 105.00
C 308.43 102.79 306.19 99.46 303.00 100.00
C 303.19 101.58 305.09 102.05 306.00 103.00 Z"/>
</g>
<g fill="#299A3F" fill-opacity="0.36" stroke="None">
<path d="
M 368.00 103.00 
C 368.00 103.00 368.86 103.22 369.00 103.00
C 370.42 102.81 370.28 100.22 369.00 100.00
C 369.40 101.25 368.27 101.98 368.00 103.00 Z"/>
</g>
<g fill="#2A993F" fill-opacity="0.95" stroke="None">
<path d="
M 246.00 102.00 
C 245.44 103.12 244.98 103.27 244.00 104.00
C 243.13 104.65 241.73 105.29 241.00 106.00
C 240.30 106.68 239.88 107.34 239.00 108.00
C 238.13 108.65 236.73 109.29 236.00 110.00
C 235.30 110.68 234.88 111.34 234.00 112.00
C 233.11 112.66 231.76 113.29 231.00 114.00
C 229.95 114.98 229.39 116.15 228.00 117.00
C 227.49 117.31 226.40 117.65 226.00 118.00
C 224.95 118.90 224.37 120.17 223.00 121.00
C 222.49 121.31 221.40 121.65 221.00 122.00
C 219.95 122.90 219.37 124.17 218.00 125.00
C 217.49 125.31 216.40 125.65 216.00 126.00
C 214.95 126.90 214.37 128.17 213.00 129.00
C 212.49 129.31 211.40 129.65 211.00 130.00
C 209.95 130.90 209.37 132.17 208.00 133.00
C 207.49 133.31 206.40 133.65 206.00 134.00
C 204.95 134.90 204.37 136.17 203.00 137.00
C 202.49 137.31 201.40 137.65 201.00 138.00
C 199.95 138.90 199.37 140.17 198.00 141.00
C 197.49 141.31 196.40 141.65 196.00 142.00
C 195.02 142.84 194.16 144.12 193.00 145.00
C 192.08 145.70 190.85 146.30 190.00 147.00
C 189.17 149.17 186.55 149.45 185.00 151.00
C 185.00 143.67 185.00 136.33 185.00 129.00
C 176.67 129.00 168.33 129.00 160.00 129.00
C 159.29 136.04 160.95 145.17 160.00 152.00 C 159.05 158.83 162.72 168.18 158.00 173.00
C 157.14 173.88 156.06 174.26 155.00 175.00
C 150.98 177.80 147.13 181.88 143.00 185.00
C 142.08 185.70 140.85 186.30 140.00 187.00
C 134.31 191.68 128.52 198.03 122.00 202.00
C 121.49 202.31 120.40 202.65 120.00 203.00
C 118.95 203.90 118.37 205.17 117.00 206.00
C 116.49 206.31 115.40 206.65 115.00 207.00
C 114.07 207.80 113.07 209.12 112.00 210.00
C 109.37 212.19 106.62 213.97 104.00 216.00
C 102.70 218.27 99.90 219.13 98.00 221.00
C 115.34 223.33 134.83 221.33 153.00 222.00
C 154.26 230.11 151.32 240.08 153.00 248.00 C 154.68 255.92 149.78 266.76 153.00 274.00
C 153.08 274.19 154.92 274.19 155.00 274.00
C 157.26 268.91 156.71 259.60 158.00 254.00
C 158.26 252.86 158.70 252.77 159.00 252.00
C 161.59 245.39 162.10 235.12 166.23 229.23 C 170.35 223.34 170.82 213.86 177.00 210.00
C 177.22 209.86 177.00 209.00 177.00 209.00
C 178.81 206.09 180.92 203.54 183.00 201.00
C 183.75 200.09 184.33 198.90 185.00 198.00
C 185.65 197.12 186.23 196.76 187.00 196.00
C 188.77 194.25 190.42 191.85 192.00 190.00
C 194.19 187.44 196.44 185.10 199.00 183.00
C 200.25 181.98 201.82 181.01 203.00 180.00
C 211.94 172.33 222.20 168.17 232.00 162.00
C 232.36 161.77 233.00 162.00 233.00 162.00
C 233.26 161.88 233.65 161.03 234.00 161.00
C 234.50 160.95 235.00 161.00 235.00 161.00
C 236.15 160.30 237.48 159.47 239.00 159.00
C 239.46 158.86 240.00 159.00 240.00 159.00
C 241.39 158.00 243.10 157.26 245.00 157.00
C 245.49 156.93 246.00 157.00 246.00 157.00
C 265.49 149.98 288.47 147.33 310.00 150.00
C 300.78 139.03 286.79 125.28 273.00 118.00
C 270.96 116.92 267.69 116.79 269.00 114.00
C 269.00 114.00 268.48 114.10 268.00 114.00
C 265.70 113.50 262.89 112.39 264.00 110.00
C 264.00 110.00 263.48 110.10 263.00 110.00
C 260.70 109.50 257.89 108.39 259.00 106.00
C 259.00 106.00 258.50 106.05 258.00 106.00
C 256.41 105.85 255.26 104.91 254.00 104.00
C 253.07 103.33 252.58 103.13 252.00 102.00
C 250.53 101.02 247.42 101.06 246.00 102.00 Z"/>
</g>
<g fill="#134C1A" fill-opacity="0.01" stroke="None">
<path d="
M 241.00 106.00 
C 241.73 105.29 243.13 104.65 244.00 104.00
C 244.26 103.94 243.11 101.33 241.76 103.75 C 240.41 106.17 241.50 105.04 241.00 106.00 Z"/>
</g>
<g fill="#163D16" fill-opacity="0.01" stroke="None">
<path d="
M 254.00 104.00 
C 255.26 104.91 256.41 105.85 258.00 106.00
C 255.58 102.53 254.70 104.15 254.00 104.00 Z"/>
</g>
<g fill="#051F04" fill-opacity="0.00" stroke="None">
<path d="
M 306.00 103.00 
C 306.84 103.89 308.12 105.25 309.00 106.00
C 309.00 106.00 309.75 106.25 310.00 106.00
C 310.00 106.00 310.20 105.40 310.00 105.00
C 309.05 104.00 305.91 102.93 306.00 103.00 Z"/>
</g>
<g fill="#0E600D" fill-opacity="0.00" stroke="None">
<path d="
M 321.00 104.00 
C 321.90 105.75 323.28 105.96 324.00 107.00
C 322.75 102.75 321.59 104.00 321.00 104.00 Z"/>
</g>
<g fill="#249440" fill-opacity="0.01" stroke="None">
<path d="
M 298.00 104.00 
C 295.06 108.99 299.26 111.32 298.00 104.00 Z"/>
</g>
<g fill="#0D3B21" fill-opacity="0.00" stroke="None">
<path d="
M 335.00 112.00 
C 336.50 110.28 339.13 108.47 341.00 107.00
C 341.79 106.70 338.58 105.68 337.25 108.25 C 335.92 110.82 335.57 110.94 335.00 112.00 Z"/>
</g>
<g fill="#134C1A" fill-opacity="0.01" stroke="None">
<path d="
M 236.00 110.00 
C 236.73 109.29 238.13 108.65 239.00 108.00
C 239.26 107.94 238.11 105.33 236.76 107.75 C 235.41 110.17 236.50 109.04 236.00 110.00 Z"/>
</g>
<g fill="#0D3612" fill-opacity="0.01" stroke="None">
<path d="
M 263.00 110.00 
C 261.94 108.49 260.78 106.87 259.00 106.00
C 257.89 108.39 260.70 109.50 263.00 110.00 Z"/>
</g>
<g fill="#134C1A" fill-opacity="0.01" stroke="None">
<path d="
M 231.00 114.00 
C 231.76 113.29 233.11 112.66 234.00 112.00
C 234.28 111.94 233.09 109.40 231.76 111.75 C 230.43 114.10 231.47 113.25 231.00 114.00 Z"/>
</g>
<g fill="#0D3612" fill-opacity="0.01" stroke="None">
<path d="
M 268.00 114.00 
C 266.94 112.49 265.78 110.87 264.00 110.00
C 262.89 112.39 265.70 113.50 268.00 114.00 Z"/>
</g>
<g fill="#29953E" fill-opacity="0.01" stroke="None">
<path d="
M 326.00 112.00 
C 323.89 115.38 325.01 121.16 326.00 125.00
C 329.54 121.48 323.92 118.28 326.00 112.00 Z"/>
</g>
<g fill="#31A93D" fill-opacity="0.01" stroke="None">
<path d="
M 385.00 112.00 
C 382.10 115.91 386.21 118.27 385.00 112.00 Z"/>
</g>
<g fill="#134C1A" fill-opacity="0.01" stroke="None">
<path d="
M 226.00 118.00 
C 226.40 117.65 227.49 117.31 228.00 117.00
C 228.03 115.86 229.53 115.28 229.00 114.00
C 226.65 113.83 226.02 117.97 226.00 118.00 Z"/>
</g>
<g fill="#0B3210" fill-opacity="0.01" stroke="None">
<path d="
M 273.00 118.00 
C 271.60 116.85 270.88 114.92 269.00 114.00
C 267.69 116.79 270.96 116.92 273.00 118.00 Z"/>
</g>
<g fill="#134C1A" fill-opacity="0.01" stroke="None">
<path d="
M 221.00 122.00 
C 221.40 121.65 222.49 121.31 223.00 121.00
C 223.03 119.86 224.53 119.28 224.00 118.00
C 221.65 117.83 221.02 121.97 221.00 122.00 Z"/>
</g>
<g fill="#006E14" fill-opacity="0.00" stroke="None">
<path d="
M 304.00 121.00 
C 303.32 120.26 302.55 118.92 302.00 118.00
C 298.47 118.41 304.32 123.62 306.00 125.00
C 306.18 123.32 304.83 122.28 304.00 121.00 Z"/>
</g>
<g fill="#2AA743" fill-opacity="0.02" stroke="None">
<path d="
M 316.00 118.00 
C 312.86 122.75 318.57 124.21 316.00 118.00 Z"/>
</g>
<g fill="#124711" fill-opacity="0.01" stroke="None">
<path d="
M 216.00 126.00 
C 216.40 125.65 217.49 125.31 218.00 125.00
C 218.03 123.86 219.53 123.28 219.00 122.00
C 216.65 121.83 216.02 125.97 216.00 126.00 Z"/>
</g>
<g fill="#1DA959" fill-opacity="0.01" stroke="None">
<path d="
M 325.00 124.00 
C 322.21 127.36 327.79 128.83 325.00 124.00 Z"/>
</g>
<g fill="#124711" fill-opacity="0.01" stroke="None">
<path d="
M 211.00 130.00 
C 211.40 129.65 212.49 129.31 213.00 129.00
C 213.03 127.86 214.53 127.28 214.00 126.00
C 211.65 125.83 211.02 129.97 211.00 130.00 Z"/>
</g>
<g fill="#2A993E" fill-opacity="0.55" stroke="None">
<path d="
M 348.00 131.00 
C 349.66 129.45 351.37 127.65 353.00 126.00
C 351.20 127.55 349.64 129.21 348.00 131.00 Z"/>
</g>
<g fill="#00FF00" fill-opacity="0.00" stroke="None">
<path d="
M 355.00 126.00 
C 354.18 125.18 355.74 126.74 355.00 126.00 Z"/>
</g>
<g fill="#308530" fill-opacity="0.01" stroke="None">
<path d="
M 356.00 129.00 
C 356.16 128.73 356.75 128.26 357.00 128.00
C 356.44 123.71 355.94 129.18 356.00 129.00 Z"/>
</g>
<g fill="#00FF00" fill-opacity="0.00" stroke="None">
<path d="
M 184.00 127.00 
C 176.82 127.64 168.42 125.71 162.00 128.00
C 169.18 127.36 177.58 129.29 184.00 127.00 Z"/>
</g>
<g fill="#369F3B" fill-opacity="0.01" stroke="None">
<path d="
M 324.00 128.00 
C 322.22 129.77 325.09 133.25 324.00 136.00
C 325.88 134.30 325.23 130.13 324.00 128.00 Z"/>
</g>
<g fill="#008700" fill-opacity="0.00" stroke="None">
<path d="
M 354.00 128.00 
C 351.65 127.88 350.19 130.29 349.00 132.00
C 351.35 132.12 352.81 129.71 354.00 128.00 Z"/>
</g>
<g fill="#249923" fill-opacity="0.00" stroke="None">
<path d="
M 379.00 130.00 
C 380.00 132.81 381.35 129.72 379.00 129.00
C 379.00 129.00 379.24 129.68 379.00 130.00 Z"/>
</g>
<g fill="#387A3A" fill-opacity="0.02" stroke="None">
<path d="
M 155.00 175.00 
C 156.06 174.26 157.14 173.88 158.00 173.00
C 159.65 159.35 159.67 143.34 158.00 130.00
C 155.37 143.61 162.79 164.61 155.00 175.00 Z"/>
</g>
<g fill="#028202" fill-opacity="0.01" stroke="None">
<path d="
M 187.00 130.00 
C 185.31 135.19 185.37 143.74 187.00 149.00
C 187.49 143.39 186.66 136.29 187.00 130.00 Z"/>
</g>
<g fill="#124711" fill-opacity="0.01" stroke="None">
<path d="
M 206.00 134.00 
C 206.40 133.65 207.49 133.31 208.00 133.00
C 208.03 131.86 209.53 131.28 209.00 130.00
C 206.65 129.83 206.02 133.97 206.00 134.00 Z"/>
</g>
<g fill="#0D2F12" fill-opacity="0.01" stroke="None">
<path d="
M 338.00 147.00 
C 337.55 147.71 337.62 149.18 337.00 150.00
C 343.48 145.10 349.22 138.35 354.00 132.00
C 349.83 135.05 343.42 142.37 338.00 147.00 Z"/>
</g>
<g fill="#007315" fill-opacity="0.00" stroke="None">
<path d="
M 376.00 135.00 
C 375.44 135.39 376.52 137.38 377.73 134.75 C 378.95 132.13 376.85 133.72 377.00 133.00
C 376.65 133.67 376.44 134.35 376.00 135.00 Z"/>
</g>
<g fill="#124711" fill-opacity="0.01" stroke="None">
<path d="
M 201.00 138.00 
C 201.40 137.65 202.49 137.31 203.00 137.00
C 203.03 135.86 204.53 135.28 204.00 134.00
C 201.65 133.83 201.02 137.97 201.00 138.00 Z"/>
</g>
<g fill="#124711" fill-opacity="0.01" stroke="None">
<path d="
M 196.00 142.00 
C 196.40 141.65 197.49 141.31 198.00 141.00
C 198.03 139.86 199.53 139.28 199.00 138.00
C 196.65 137.83 196.02 141.97 196.00 142.00 Z"/>
</g>
<g fill="#175616" fill-opacity="0.01" stroke="None">
<path d="
M 190.00 147.00 
C 190.85 146.30 192.08 145.70 193.00 145.00
C 193.03 143.86 194.53 143.28 194.00 142.00
C 190.83 141.96 188.88 148.69 190.00 147.00 Z"/>
</g>
<g fill="#125A18" fill-opacity="0.00" stroke="None">
<path d="
M 334.00 152.00 
C 334.85 151.30 336.08 150.70 337.00 150.00
C 337.62 149.18 337.55 147.71 338.00 147.00
C 335.70 148.96 333.36 152.96 334.00 152.00 Z"/>
</g>
<g fill="#3D9641" fill-opacity="0.01" stroke="None">
<path d="
M 306.00 150.00 
C 298.82 150.64 290.42 148.71 284.00 151.00
C 291.18 150.36 299.58 152.29 306.00 150.00 Z"/>
</g>
<g fill="#1DB73B" fill-opacity="0.01" stroke="None">
<path d="
M 280.00 151.00 
C 272.74 149.83 274.95 153.87 280.00 151.00 Z"/>
</g>
<g fill="#23A936" fill-opacity="0.01" stroke="None">
<path d="
M 272.00 152.00 
C 266.90 151.01 269.06 154.68 272.00 152.00 Z"/>
</g>
<g fill="#1E9F67" fill-opacity="0.01" stroke="None">
<path d="
M 266.00 153.00 
C 260.90 152.01 263.06 155.68 266.00 153.00 Z"/>
</g>
<g fill="#093E09" fill-opacity="0.00" stroke="None">
<path d="
M 326.00 156.00 
C 325.79 156.39 326.18 157.58 326.00 158.00
C 326.97 157.36 328.01 156.69 329.00 156.00
C 329.38 155.91 327.52 153.17 326.00 156.00 Z"/>
</g>
<g fill="#3ABD38" fill-opacity="0.01" stroke="None">
<path d="
M 256.00 155.00 
C 254.34 153.34 256.61 155.61 256.00 155.00 Z"/>
</g>
<g fill="#00AA55" fill-opacity="0.01" stroke="None">
<path d="
M 354.00 155.00 
C 353.18 154.18 354.74 155.74 354.00 155.00 Z"/>
</g>
<g fill="#009400" fill-opacity="0.00" stroke="None">
<path d="
M 325.00 159.00 
C 324.90 158.81 325.69 158.21 326.00 158.00
C 326.18 157.58 325.79 156.39 326.00 156.00
C 324.67 156.96 321.28 160.98 325.00 159.00 Z"/>
</g>
<g fill="#008000" fill-opacity="0.01" stroke="None">
<path d="
M 352.00 156.00 
C 351.18 155.18 352.74 156.74 352.00 156.00 Z"/>
</g>
<g fill="#1BA52A" fill-opacity="0.01" stroke="None">
<path d="
M 246.00 157.00 
C 246.00 157.00 245.49 156.93 245.00 157.00
C 243.04 160.51 247.28 157.43 249.00 158.00
C 248.73 156.58 247.00 157.03 246.00 157.00 Z"/>
</g>
<g fill="#2BA52A" fill-opacity="0.01" stroke="None">
<path d="
M 347.00 157.00 
C 347.00 157.00 346.48 156.91 346.00 157.00
C 344.04 160.51 348.28 157.43 350.00 158.00
C 349.73 156.58 348.00 157.03 347.00 157.00 Z"/>
</g>
<g fill="#00AD22" fill-opacity="0.00" stroke="None">
<path d="
M 240.00 159.00 
C 240.00 159.00 239.46 158.86 239.00 159.00
C 238.68 162.29 241.29 159.21 243.00 160.00
C 242.73 158.58 241.00 159.03 240.00 159.00 Z"/>
</g>
<g fill="#000000" fill-opacity="0.00" stroke="None">
<path d="
M 233.00 162.00 
C 233.35 161.97 233.74 161.12 234.00 161.00
C 233.65 161.03 233.26 161.88 233.00 162.00 Z"/>
</g>
<g fill="#116A1C" fill-opacity="0.01" stroke="None">
<path d="
M 233.00 162.00 
C 233.00 162.00 232.36 161.77 232.00 162.00
C 232.10 165.12 238.60 161.73 235.00 161.00
C 235.00 161.00 234.50 160.95 234.00 161.00
C 233.74 161.12 233.35 161.97 233.00 162.00 Z"/>
</g>
<g fill="#2A993F" fill-opacity="0.96" stroke="None">
<path d="
M 314.00 165.00 
C 313.53 165.11 313.00 165.00 313.00 165.00
C 312.29 165.47 311.84 165.57 311.00 166.00
C 307.93 167.57 304.49 169.63 301.00 171.00
C 300.57 171.17 300.00 171.00 300.00 171.00
C 299.74 171.12 299.33 171.83 299.00 172.00
C 295.72 173.70 292.43 175.65 289.00 177.00
C 288.57 177.17 288.00 177.00 288.00 177.00
C 282.74 181.22 275.91 184.32 270.00 188.00
C 269.43 188.36 268.50 188.63 268.00 189.00
C 266.13 190.40 264.26 191.84 262.00 193.00
C 261.40 193.31 260.53 193.65 260.00 194.00
C 257.42 195.72 254.73 198.11 252.00 200.00
C 251.05 200.66 249.84 201.31 249.00 202.00
C 247.09 203.57 245.17 205.40 243.00 207.00
C 242.09 207.67 240.80 208.29 240.00 209.00
C 236.91 211.71 233.80 214.72 231.00 218.00
C 227.11 222.55 222.75 227.41 218.00 231.00
C 217.11 231.68 215.78 232.29 215.00 233.00
C 213.77 234.44 212.41 236.87 211.00 238.00
C 210.32 240.42 208.82 239.43 208.00 238.00
C 207.56 243.68 203.23 247.16 200.00 252.00
C 199.58 252.63 199.38 253.39 199.00 254.00
C 197.73 256.03 196.26 258.15 195.00 260.00
C 194.55 260.65 194.35 261.32 194.00 262.00
C 192.75 264.45 191.64 266.96 190.00 269.00
C 189.76 269.30 190.00 270.00 190.00 270.00
C 188.91 272.79 187.22 275.26 186.00 278.00
C 186.26 279.16 187.17 278.71 188.00 279.00
C 190.18 278.40 195.34 269.87 197.00 268.00
C 198.38 266.45 199.69 264.53 201.00 263.00
C 211.18 251.09 223.07 239.54 235.77 230.77 C 248.47 222.00 263.76 210.57 279.00 207.00
C 279.47 206.89 280.00 207.00 280.00 207.00
C 291.71 197.50 332.71 199.78 320.00 223.00
C 319.79 223.38 320.00 224.00 320.00 224.00
C 319.87 225.97 318.70 226.58 318.00 228.00
C 317.29 229.44 316.88 230.71 316.00 232.00
C 315.55 232.65 315.35 233.32 315.00 234.00
C 313.66 236.04 310.88 242.84 309.00 239.00
C 307.99 242.11 307.61 243.64 306.00 246.00
C 305.08 247.35 303.98 248.78 303.00 250.00
C 302.08 251.14 301.04 251.96 300.00 253.00
C 299.05 253.95 297.91 255.10 297.00 256.00
C 295.38 257.59 293.82 259.45 292.00 261.00
C 289.73 262.94 287.62 264.70 285.00 266.00
C 284.73 266.17 284.35 266.97 284.00 267.00
C 283.50 267.05 283.00 267.00 283.00 267.00
C 280.09 271.66 271.88 273.43 267.07 276.07 C 262.26 278.72 254.46 280.98 249.00 282.00
C 248.52 282.09 248.00 282.00 248.00 282.00
C 242.72 284.89 235.71 284.76 230.00 287.00
C 229.39 287.24 228.95 287.76 228.00 288.00
C 225.31 288.68 222.66 289.36 220.00 290.00
C 217.51 290.60 215.40 290.93 213.00 292.00
C 210.89 292.94 208.53 294.41 206.00 295.00
C 205.53 295.11 205.00 295.00 205.00 295.00
C 194.56 303.37 181.77 307.42 173.00 319.00
C 171.97 320.36 170.90 321.78 170.00 323.00
C 169.00 324.36 167.84 325.78 167.00 327.00
C 166.55 327.65 166.35 328.32 166.00 329.00
C 165.97 330.14 164.47 330.72 165.00 332.00
C 224.47 329.67 285.09 331.67 345.00 331.00
C 345.00 294.67 345.00 258.33 345.00 222.00
C 363.33 222.00 381.67 222.00 400.00 222.00
C 395.08 214.18 383.69 203.89 374.00 199.00
C 372.70 198.34 371.31 197.93 370.00 197.00
C 367.51 195.23 365.24 192.84 363.00 191.00
C 362.09 190.26 360.89 189.68 360.00 189.00
C 354.16 184.59 348.66 179.38 343.00 175.00
C 340.37 172.96 337.54 171.17 335.00 169.00
C 325.74 161.08 324.88 162.44 314.00 165.00 Z"/>
</g>
<g fill="#1EB238" fill-opacity="0.01" stroke="None">
<path d="
M 333.00 162.00 
C 327.34 158.59 326.12 164.59 333.00 162.00 Z"/>
</g>
<g fill="#208530" fill-opacity="0.01" stroke="None">
<path d="
M 312.00 164.00 
C 312.16 164.00 312.65 164.97 313.00 165.00
C 313.00 165.00 313.53 165.11 314.00 165.00
C 315.44 162.90 313.20 162.47 312.00 164.00 Z"/>
</g>
<g fill="#003D1B" fill-opacity="0.00" stroke="None">
<path d="
M 311.00 166.00 
C 311.84 165.57 312.29 165.47 313.00 165.00
C 312.65 164.97 312.16 164.00 312.00 164.00
C 310.71 164.01 307.69 166.12 311.00 166.00 Z"/>
</g>
<g fill="#00AA55" fill-opacity="0.01" stroke="None">
<path d="
M 308.00 166.00 
C 307.18 165.18 308.74 166.74 308.00 166.00 Z"/>
</g>
<g fill="#0D4713" fill-opacity="0.00" stroke="None">
<path d="
M 335.00 169.00 
C 337.54 171.17 340.37 172.96 343.00 175.00
C 345.92 173.48 336.30 168.81 334.00 166.00
C 333.86 167.17 334.41 168.07 335.00 169.00 Z"/>
</g>
<g fill="#00FF00" fill-opacity="0.00" stroke="None">
<path d="
M 305.00 167.00 
C 304.18 166.18 305.74 167.74 305.00 167.00 Z"/>
</g>
<g fill="#103E10" fill-opacity="0.00" stroke="None">
<path d="
M 289.00 175.00 
C 288.75 175.27 289.23 176.84 289.00 177.00
C 292.43 175.65 295.72 173.70 299.00 172.00
C 299.27 171.82 299.65 171.03 300.00 171.00
C 300.00 171.00 300.57 171.17 301.00 171.00
C 300.90 167.98 291.25 173.57 289.00 175.00 Z"/>
</g>
<g fill="#000000" fill-opacity="0.00" stroke="None">
<path d="
M 299.00 172.00 
C 299.33 171.83 299.74 171.12 300.00 171.00
C 299.65 171.03 299.27 171.82 299.00 172.00 Z"/>
</g>
<g fill="#009923" fill-opacity="0.00" stroke="None">
<path d="
M 288.00 177.00 
C 288.00 177.00 288.57 177.17 289.00 177.00
C 289.23 176.84 288.75 175.27 289.00 175.00
C 287.66 175.85 284.76 176.63 288.00 177.00 Z"/>
</g>
<g fill="#093A0E" fill-opacity="0.00" stroke="None">
<path d="
M 199.00 183.00 
C 196.73 185.18 194.18 187.82 192.00 190.00
C 190.42 191.85 188.77 194.25 187.00 196.00
C 189.28 194.83 193.14 190.82 196.25 188.25 C 199.36 185.67 203.30 179.55 203.00 180.00
C 201.82 181.01 200.25 181.98 199.00 183.00 Z"/>
</g>
<g fill="#0F3D16" fill-opacity="0.01" stroke="None">
<path d="
M 140.00 187.00 
C 140.85 186.30 142.08 185.70 143.00 185.00
C 143.88 184.61 141.73 182.69 140.76 184.75 C 139.79 186.82 140.25 186.66 140.00 187.00 Z"/>
</g>
<g fill="#000000" fill-opacity="0.00" stroke="None">
<path d="
M 192.00 190.00 
C 194.18 187.82 196.73 185.18 199.00 183.00
C 196.44 185.10 194.19 187.44 192.00 190.00 Z"/>
</g>
<g fill="#146813" fill-opacity="0.00" stroke="None">
<path d="
M 268.00 189.00 
C 268.50 188.63 269.43 188.36 270.00 188.00
C 271.87 183.33 266.75 190.33 268.00 189.00 Z"/>
</g>
<g fill="#124218" fill-opacity="0.01" stroke="None">
<path d="
M 360.00 189.00 
C 360.89 189.68 362.09 190.26 363.00 191.00
C 363.02 191.03 363.12 189.45 361.75 188.27 C 360.39 187.09 359.31 188.69 360.00 189.00 Z"/>
</g>
<g fill="#167A23" fill-opacity="0.00" stroke="None">
<path d="
M 260.00 194.00 
C 260.53 193.65 261.40 193.31 262.00 193.00
C 263.89 189.13 255.03 194.75 260.00 194.00 Z"/>
</g>
<g fill="#0F3D16" fill-opacity="0.01" stroke="None">
<path d="
M 370.00 197.00 
C 371.31 197.93 372.70 198.34 374.00 199.00
C 372.98 198.17 372.61 197.77 371.75 196.27 C 370.90 194.77 369.03 196.57 370.00 197.00 Z"/>
</g>
<g fill="#146B20" fill-opacity="0.00" stroke="None">
<path d="
M 185.00 198.00 
C 184.33 198.90 183.75 200.09 183.00 201.00
C 182.84 201.96 181.14 203.54 183.00 204.00
C 186.38 202.50 185.35 195.78 185.00 198.00 Z"/>
</g>
<g fill="#18651F" fill-opacity="0.01" stroke="None">
<path d="
M 249.00 202.00 
C 249.84 201.31 251.05 200.66 252.00 200.00
C 252.25 199.91 251.14 197.97 249.24 200.23 C 247.33 202.49 248.81 202.29 249.00 202.00 Z"/>
</g>
<g fill="#134C1A" fill-opacity="0.01" stroke="None">
<path d="
M 120.00 203.00 
C 120.40 202.65 121.49 202.31 122.00 202.00
C 122.03 200.86 123.53 200.28 123.00 199.00
C 120.65 198.83 120.02 202.97 120.00 203.00 Z"/>
</g>
<g fill="#124711" fill-opacity="0.01" stroke="None">
<path d="
M 115.00 207.00 
C 115.40 206.65 116.49 206.31 117.00 206.00
C 117.03 204.86 118.53 204.28 118.00 203.00
C 115.65 202.83 115.02 206.97 115.00 207.00 Z"/>
</g>
<g fill="#268B49" fill-opacity="0.01" stroke="None">
<path d="
M 309.00 203.00 
C 305.49 203.55 300.76 201.84 298.00 204.00
C 301.51 203.45 306.24 205.16 309.00 203.00 Z"/>
</g>
<g fill="#3ABD38" fill-opacity="0.01" stroke="None">
<path d="
M 313.00 204.00 
C 311.34 202.34 313.61 204.61 313.00 204.00 Z"/>
</g>
<g fill="#0F3D16" fill-opacity="0.01" stroke="None">
<path d="
M 240.00 209.00 
C 240.80 208.29 242.09 207.67 243.00 207.00
C 243.73 206.72 241.83 204.59 240.76 206.75 C 239.69 208.91 240.33 208.53 240.00 209.00 Z"/>
</g>
<g fill="#008000" fill-opacity="0.01" stroke="None">
<path d="
M 315.00 205.00 
C 314.18 204.18 315.74 205.74 315.00 205.00 Z"/>
</g>
<g fill="#104512" fill-opacity="0.00" stroke="None">
<path d="
M 104.00 216.00 
C 106.62 213.97 109.37 212.19 112.00 210.00
C 112.03 208.86 113.53 208.28 113.00 207.00
C 108.70 208.36 103.79 216.32 104.00 216.00 Z"/>
</g>
<g fill="#1FAC2E" fill-opacity="0.01" stroke="None">
<path d="
M 280.00 207.00 
C 280.00 207.00 279.47 206.89 279.00 207.00
C 277.04 210.51 281.28 207.43 283.00 208.00
C 282.73 206.58 281.00 207.03 280.00 207.00 Z"/>
</g>
<g fill="#125531" fill-opacity="0.01" stroke="None">
<path d="
M 177.00 209.00 
C 177.00 209.00 177.22 209.86 177.00 210.00
C 178.86 210.57 179.72 207.73 177.00 209.00 Z"/>
</g>
<g fill="#00D343" fill-opacity="0.01" stroke="None">
<path d="
M 275.00 210.00 
C 273.34 208.34 275.61 210.61 275.00 210.00 Z"/>
</g>
<g fill="#008000" fill-opacity="0.01" stroke="None">
<path d="
M 272.00 211.00 
C 271.18 210.18 272.74 211.74 272.00 211.00 Z"/>
</g>
<g fill="#2F8047" fill-opacity="0.01" stroke="None">
<path d="
M 321.00 213.00 
C 318.11 216.91 322.21 219.27 321.00 213.00 Z"/>
</g>
<g fill="#006800" fill-opacity="0.00" stroke="None">
<path d="
M 231.00 215.00 
C 226.21 216.78 230.63 219.74 231.00 215.00 Z"/>
</g>
<g fill="#279745" fill-opacity="0.69" stroke="None">
<path d="
M 228.00 220.00 
C 224.96 222.88 222.17 226.29 219.00 229.00
C 218.52 229.51 218.41 230.52 218.00 231.00
C 222.75 227.41 227.11 222.55 231.00 218.00
C 230.03 218.76 228.86 219.19 228.00 220.00 Z"/>
</g>
<g fill="#0C571F" fill-opacity="0.01" stroke="None">
<path d="
M 211.00 238.00 
C 212.41 236.87 213.77 234.44 215.00 233.00
C 216.31 231.47 217.52 230.26 219.00 229.00
C 222.17 226.29 224.96 222.88 228.00 220.00
C 224.74 221.50 220.74 224.99 217.25 228.25 C 213.75 231.51 211.22 237.66 211.00 238.00 Z"/>
</g>
<g fill="#279126" fill-opacity="0.01" stroke="None">
<path d="
M 320.00 224.00 
C 320.00 224.00 319.79 223.38 320.00 223.00
C 319.78 222.05 320.39 220.26 319.00 220.00
C 319.50 221.60 316.65 226.24 320.00 224.00 Z"/>
</g>
<g fill="#36A851" fill-opacity="0.01" stroke="None">
<path d="
M 152.00 223.00 
C 134.49 223.66 115.76 221.67 99.00 224.00
C 116.33 224.00 133.67 224.00 151.00 224.00
C 151.66 240.18 149.67 257.57 152.00 273.00
C 152.00 256.33 152.00 239.67 152.00 223.00 Z"/>
</g>
<g fill="#05A954" fill-opacity="0.01" stroke="None">
<path d="
M 346.00 224.00 
C 346.00 223.96 347.00 224.00 347.00 224.00
C 364.18 223.34 382.57 225.33 399.00 223.00
C 391.39 224.40 379.15 221.13 372.00 223.00 C 364.85 224.87 350.84 218.96 346.00 224.00 Z"/>
</g>
<g fill="#008080" fill-opacity="0.01" stroke="None">
<path d="
M 347.00 224.00 
C 347.00 224.00 346.00 223.96 346.00 224.00
C 346.67 259.52 344.67 296.24 347.00 331.00
C 344.59 295.55 350.22 259.37 347.00 224.00 Z"/>
</g>
<g fill="#003E26" fill-opacity="0.00" stroke="None">
<path d="
M 315.00 231.00 
C 314.99 231.15 315.96 231.65 316.00 232.00
C 316.88 230.71 317.29 229.44 318.00 228.00
C 319.12 226.91 316.26 228.26 315.00 231.00 Z"/>
</g>
<g fill="#000000" fill-opacity="0.00" stroke="None">
<path d="
M 215.00 233.00 
C 215.78 232.29 217.11 231.68 218.00 231.00
C 218.41 230.52 218.52 229.51 219.00 229.00
C 217.52 230.26 216.31 231.47 215.00 233.00 Z"/>
</g>
<g fill="#187017" fill-opacity="0.00" stroke="None">
<path d="
M 315.00 234.00 
C 315.35 233.32 315.55 232.65 316.00 232.00
C 315.96 231.65 314.99 231.15 315.00 231.00
C 314.83 231.38 311.95 235.62 315.00 234.00 Z"/>
</g>
<g fill="#0F3B13" fill-opacity="0.01" stroke="None">
<path d="
M 303.00 250.00 
C 303.98 248.78 305.08 247.35 306.00 246.00
C 304.24 244.68 301.46 249.39 300.00 251.00
C 301.15 251.10 302.10 250.63 303.00 250.00 Z"/>
</g>
<g fill="#3ABD38" fill-opacity="0.01" stroke="None">
<path d="
M 161.00 250.00 
C 160.23 249.23 162.79 251.79 161.00 250.00 Z"/>
</g>
<g fill="#237A22" fill-opacity="0.00" stroke="None">
<path d="
M 199.00 254.00 
C 199.38 253.39 199.58 252.63 200.00 252.00
C 201.37 251.05 198.43 250.41 198.27 252.25 C 198.10 254.08 196.94 255.01 199.00 254.00 Z"/>
</g>
<g fill="#196518" fill-opacity="0.00" stroke="None">
<path d="
M 297.00 256.00 
C 297.91 255.10 299.05 253.95 300.00 253.00
C 300.71 252.63 299.29 251.24 298.25 253.25 C 297.21 255.25 297.29 255.56 297.00 256.00 Z"/>
</g>
<g fill="#209C2F" fill-opacity="0.01" stroke="None">
<path d="
M 158.00 254.00 
C 159.44 253.94 158.74 255.92 160.00 256.00
C 160.89 254.59 158.94 253.09 159.00 252.00
C 158.70 252.77 158.26 252.86 158.00 254.00 Z"/>
</g>
<g fill="#007017" fill-opacity="0.00" stroke="None">
<path d="
M 194.00 262.00 
C 194.35 261.32 194.55 260.65 195.00 260.00
C 196.58 258.40 189.22 263.91 194.00 262.00 Z"/>
</g>
<g fill="#0E3A1C" fill-opacity="0.01" stroke="None">
<path d="
M 283.00 267.00 
C 283.00 267.00 283.50 267.05 284.00 267.00
C 284.26 266.88 284.67 266.17 285.00 266.00
C 287.62 264.70 289.73 262.94 292.00 261.00
C 293.92 260.14 280.24 264.35 283.00 267.00 Z"/>
</g>
<g fill="#29B33B" fill-opacity="0.01" stroke="None">
<path d="
M 158.00 262.00 
C 155.19 264.83 159.13 267.21 158.00 262.00 Z"/>
</g>
<g fill="#0F4316" fill-opacity="0.01" stroke="None">
<path d="
M 201.00 263.00 
C 199.69 264.53 198.38 266.45 197.00 268.00
C 199.09 269.02 202.22 263.93 204.00 262.00
C 202.83 261.86 201.93 262.41 201.00 263.00 Z"/>
</g>
<g fill="#000000" fill-opacity="0.00" stroke="None">
<path d="
M 284.00 267.00 
C 284.35 266.97 284.73 266.17 285.00 266.00
C 284.67 266.17 284.26 266.88 284.00 267.00 Z"/>
</g>
<g fill="#2DA163" fill-opacity="0.01" stroke="None">
<path d="
M 157.00 267.00 
C 154.10 270.91 158.21 273.27 157.00 267.00 Z"/>
</g>
<g fill="#009923" fill-opacity="0.00" stroke="None">
<path d="
M 190.00 270.00 
C 190.00 270.00 189.76 269.30 190.00 269.00
C 188.14 268.43 187.28 271.27 190.00 270.00 Z"/>
</g>
<g fill="#008000" fill-opacity="0.01" stroke="None">
<path d="
M 188.00 271.00 
C 187.18 270.18 188.74 271.74 188.00 271.00 Z"/>
</g>
<g fill="#00FF00" fill-opacity="0.00" stroke="None">
<path d="
M 269.00 273.00 
C 268.18 272.18 269.74 273.74 269.00 273.00 Z"/>
</g>
<g fill="#279455" fill-opacity="0.05" stroke="None">
<path d="
M 155.00 274.00 
C 154.92 274.19 153.08 274.19 153.00 274.00
C 153.08 274.57 154.04 277.92 155.00 274.00 Z"/>
</g>
<g fill="#187326" fill-opacity="0.08" stroke="None">
<path d="
M 188.00 279.00 
C 187.17 278.71 186.26 279.16 186.00 278.00
C 182.71 277.68 185.79 280.28 185.00 282.00
C 186.75 281.70 191.70 280.30 188.00 279.00 Z"/>
</g>
<g fill="#24942E" fill-opacity="0.01" stroke="None">
<path d="
M 248.00 282.00 
C 248.00 282.00 248.52 282.09 249.00 282.00
C 252.83 278.75 247.16 281.01 245.00 281.00
C 245.27 282.42 247.00 281.97 248.00 282.00 Z"/>
</g>
<g fill="#00D343" fill-opacity="0.01" stroke="None">
<path d="
M 243.00 282.00 
C 241.34 280.34 243.61 282.61 243.00 282.00 Z"/>
</g>
<g fill="#209C2F" fill-opacity="0.01" stroke="None">
<path d="
M 228.00 288.00 
C 228.95 287.76 229.39 287.24 230.00 287.00
C 228.69 286.46 227.56 285.59 226.00 286.00
C 226.17 286.57 227.61 287.90 228.00 288.00 Z"/>
</g>
<g fill="#0F9B2C" fill-opacity="0.01" stroke="None">
<path d="
M 213.00 292.00 
C 215.40 290.93 217.51 290.60 220.00 290.00
C 219.94 288.56 221.92 289.26 222.00 288.00
C 217.81 286.28 211.56 293.25 213.00 292.00 Z"/>
</g>
<g fill="#209C2F" fill-opacity="0.01" stroke="None">
<path d="
M 205.00 295.00 
C 205.00 295.00 205.53 295.11 206.00 295.00
C 208.28 291.59 200.84 294.15 205.00 295.00 Z"/>
</g>
<g fill="#15721C" fill-opacity="0.00" stroke="None">
<path d="
M 168.00 323.00 
C 168.43 322.83 169.59 323.19 170.00 323.00
C 170.90 321.78 171.97 320.36 173.00 319.00
C 173.96 318.33 169.92 320.45 168.00 323.00 Z"/>
</g>
<g fill="#032311" fill-opacity="0.00" stroke="None">
<path d="
M 166.00 326.00 
C 166.06 326.23 166.96 326.65 167.00 327.00
C 167.84 325.78 169.00 324.36 170.00 323.00
C 169.59 323.19 168.43 322.83 168.00 323.00
C 167.33 323.89 166.62 325.01 166.00 326.00 Z"/>
</g>
<g fill="#007017" fill-opacity="0.00" stroke="None">
<path d="
M 166.00 329.00 
C 166.35 328.32 166.55 327.65 167.00 327.00
C 166.96 326.65 166.06 326.23 166.00 326.00
C 164.06 329.12 165.61 327.46 166.00 329.00 Z"/>
</g>
</svg>